<svg width="109" height="16" viewBox="0 0 109 16" fill="none" xmlns="http://www.w3.org/2000/svg">
<path d="M108.354 8.35355C108.549 8.15829 108.549 7.84171 108.354 7.64645L105.172 4.46447C104.976 4.2692 104.66 4.2692 104.464 4.46447C104.269 4.65973 104.269 4.97631 104.464 5.17157L107.293 8L104.464 10.8284C104.269 11.0237 104.269 11.3403 104.464 11.5355C104.66 11.7308 104.976 11.7308 105.172 11.5355L108.354 8.35355ZM0 8.5H5.4V7.5H0V8.5ZM16.2 8.5H27V7.5H16.2V8.5ZM37.8 8.5H48.6V7.5H37.8V8.5ZM59.4 8.5H70.2V7.5H59.4V8.5ZM81 8.5H91.8V7.5H81V8.5ZM102.6 8.5H108V7.5H102.6V8.5ZM108.707 8.70711C109.098 8.31658 109.098 7.68342 108.707 7.29289L102.343 0.928932C101.953 0.538408 101.319 0.538408 100.929 0.928932C100.538 1.31946 100.538 1.95262 100.929 2.34315L106.586 8L100.929 13.6569C100.538 14.0474 100.538 14.6805 100.929 15.0711C101.319 15.4616 101.953 15.4616 102.343 15.0711L108.707 8.70711ZM0 9H5.4V7H0V9ZM16.2 9H27V7H16.2V9ZM37.8 9H48.6V7H37.8V9ZM59.4 9H70.2V7H59.4V9ZM81 9H91.8V7H81V9ZM102.6 9H108V7H102.6V9Z" fill="white"/>
</svg>
