<svg width="167" height="103" viewBox="0 0 167 103" fill="none" xmlns="http://www.w3.org/2000/svg">
<path d="M53.2831 56.7581C53.2831 57.3388 53.09 58.0221 52.7096 58.8021C52.3292 59.5877 51.6762 60.3222 50.7507 61.0111C49.8251 61.7 48.6555 62.0473 47.2416 62.0473C46.6227 62.0473 45.8562 61.9847 44.9306 61.8537C44.0051 61.7285 43.0739 61.3527 42.1314 60.7321C39.3037 58.6199 37.8898 55.9098 37.8955 52.5962C37.8955 52.34 37.958 51.2241 38.0886 49.2371C38.2192 47.2558 39.5138 44.8077 41.9837 41.8983C44.1641 39.5697 46.5943 38.4083 49.28 38.414C51.892 38.414 53.6124 39.4729 54.4471 41.5852C54.6288 42.1317 54.7196 42.6385 54.7196 43.111C54.7196 43.4014 54.6628 43.7942 54.555 44.2839C54.4471 44.7735 53.9361 45.0183 53.0332 45.0183C51.1822 45.0183 49.7854 45.5592 48.8428 46.6523C47.605 48.144 46.9918 49.9602 46.9861 52.1066C46.9861 52.8695 47.1224 53.7008 47.3949 54.5889C47.6675 55.4828 48.1444 55.9269 48.8372 55.9269C49.3425 55.9269 49.916 55.8187 50.5519 55.6024C51.1879 55.386 51.7216 55.2778 52.1588 55.2778C52.9197 55.2778 53.3001 55.7732 53.3001 56.7524L53.2831 56.7581ZM64.4575 49.6869C64.5143 49.63 64.537 49.4763 64.537 49.2257C64.537 48.2408 64.4632 47.2786 64.3212 46.3335C64.1395 45.2062 63.4355 44.6425 62.1976 44.6425C61.8342 44.6425 61.3516 44.8304 60.7554 45.2119C60.1592 45.5933 59.7504 46.0203 59.529 46.4929C59.1996 47.2957 58.6545 47.6942 57.8937 47.6942C57.6382 47.6942 57.3486 47.6031 57.0249 47.4209C56.7013 47.2387 56.5366 46.9085 56.5366 46.436C56.5366 44.1814 57.3656 42.3709 59.0179 41.0101C60.6702 39.6494 62.4759 38.9662 64.4348 38.9662C66.3937 38.9662 67.9439 39.4217 69.0851 40.3326C70.2264 41.2436 71.0725 42.388 71.6119 43.7715C72.157 45.155 72.4636 46.5555 72.5317 47.9732C72.5317 49.2485 72.3671 51.0647 72.0377 53.4275C71.4529 57.6861 69.5451 60.8688 66.3142 62.9753C64.1339 64.4271 62.033 65.1559 60.0002 65.1559C58.5126 65.1559 57.1612 64.689 55.9461 63.761C54.731 62.833 54.1234 61.495 54.1234 59.7472C54.1234 58.4718 54.4698 57.0656 55.1625 55.517C55.8552 53.974 56.9341 52.6247 58.4047 51.4803C59.8753 50.336 61.715 49.7666 63.9295 49.7666C64.219 49.7666 64.3894 49.7381 64.4462 49.6869H64.4575ZM63.7705 54.4067C63.1913 54.4067 62.5724 54.6231 61.9194 55.0615C61.2664 55.4999 60.7214 55.9952 60.2841 56.5589C59.8469 57.1225 59.6312 57.6235 59.6312 58.0619C59.6312 58.5003 59.9946 58.7167 60.7213 58.7167C61.3005 58.7167 61.8115 58.4377 62.2431 57.874C62.6803 57.3104 63.0266 56.6898 63.2765 56.018C63.532 55.3462 63.6967 54.811 63.7705 54.4067ZM77.994 67.2511C79.1921 67.2511 80.1744 66.6362 80.9353 65.395C81.6961 63.8692 82.2242 60.9029 82.5195 56.5019H83.9901C85.296 56.3596 86.3465 56.2685 87.1471 56.2343C86.8178 57.9822 86.6531 59.6162 86.6531 61.1477C86.6531 64.6777 87.8625 66.4426 90.2984 66.4426C91.6384 66.4426 92.8138 65.5886 93.8131 63.8806C94.8125 62.1726 95.5109 60.2425 95.914 58.0961C96.3172 55.9497 96.5159 53.9683 96.5159 52.1465C96.5159 49.2713 96.1752 46.51 95.4882 43.8512C95.0169 42.2115 94.1084 41.3574 92.7684 41.2834C90.9514 41.4258 89.8896 42.3367 89.583 44.0106C89.2707 45.6844 89.0436 46.9768 88.9016 47.8821L88.3565 50.4498C87.4878 50.4498 85.6537 50.7231 82.8601 51.264C82.8942 50.279 82.9169 49.6698 82.9169 49.4364C82.9169 49.203 82.9339 48.9525 82.9737 48.7019C82.9737 45.7926 82.8147 44.0106 82.4911 43.3558C81.9119 42.3709 81.3782 41.8642 80.8842 41.8243C80.3959 41.7901 80.1119 41.7674 80.0381 41.7674C79.1694 41.7674 78.3858 42.1659 77.6988 42.963C76.3928 44.8931 75.1153 49.1631 73.8774 55.7845C73.4402 57.6406 73.2245 59.2404 73.2188 60.5841C73.2188 62.1839 73.5084 63.4934 74.0875 64.5125C75.0301 66.2263 75.8875 67.1087 76.671 67.16C77.4489 67.2169 77.8975 67.2454 78.0054 67.2454L77.994 67.2511ZM114.033 62.3832L114.47 61.3983V62.1099C114.47 63.6016 114.703 64.9509 115.174 66.1466C115.787 67.8603 116.838 68.7143 118.331 68.7143C119.745 68.7143 120.807 68.0595 121.516 66.7501C122.226 65.4406 122.652 63.9888 122.8 62.3832C122.947 60.7834 123.021 59.3258 123.021 58.0164C123.021 55.5796 122.805 52.9037 122.374 49.9943C122.118 48.3205 121.903 47.1192 121.727 46.3904C121.437 45.3371 120.858 44.5173 119.989 43.9309C119.484 43.6006 118.956 43.4412 118.411 43.4412C117.899 43.4412 117.394 43.6063 116.889 43.9309C115.907 44.5116 115.361 45.3314 115.254 46.3847C115.219 46.7092 115.009 47.6657 114.623 49.2485C114.243 50.8313 113.76 52.5962 113.175 54.5434C112.591 56.4905 111.983 58.1986 111.347 59.6731C110.711 61.1477 110.155 61.8822 109.683 61.8822C109.286 61.8822 109.087 61.4438 109.087 60.5727C109.087 59.4796 109.388 57.4072 109.99 54.3498C110.592 51.2924 110.893 49.277 110.893 48.292C110.893 46.0716 109.933 44.5628 108.014 43.7601C107.469 43.5779 106.924 43.4868 106.379 43.4868C105.215 43.4868 104.164 43.9593 103.222 44.9044C101.916 46.2139 100.814 48.2123 99.9227 50.9053C99.0313 53.5983 98.5827 55.9781 98.5827 58.0505C98.5827 61.2901 99.23 63.892 100.536 65.8562C101.189 66.8412 102.052 67.6952 103.119 68.4239C104.187 69.1527 105.43 69.5171 106.844 69.5171C108.44 69.5171 109.763 68.8452 110.819 67.5016C111.58 66.5906 112.233 65.674 112.778 64.746C113.323 63.8179 113.743 63.0266 114.033 62.3718V62.3832ZM16.7901 35.8007L13.5707 29.0141L13.2243 28.4391C12.577 27.3517 11.6912 25.7347 10.5783 23.5826C10.2036 22.8083 9.90831 22.2504 9.69822 21.8974C9.59034 21.5728 9.61305 21.3622 9.77204 21.2654C9.99348 21.1288 10.4023 20.9466 11.0042 20.7188C12.1568 20.3317 14.2236 19.4777 17.1989 18.1625L17.4374 18.0202C18.6809 17.2743 19.3793 16.2438 19.5497 14.9286C19.6348 13.8355 19.3964 12.8278 18.8399 11.8997C17.903 10.334 16.3643 9.67931 14.218 9.92982C12.6792 10.2486 11.078 10.9091 9.42567 11.9054C7.73929 12.9189 6.27434 13.9095 5.03653 14.8774L4.75262 15.0482C4.33812 15.2987 3.90659 15.4069 3.45234 15.3727C2.7653 15.3101 2.18046 15.4183 1.7035 15.7086C1.19247 16.0161 0.789329 16.4943 0.488392 17.1548C0.124995 18.0657 -0.0112782 18.8856 0.0795709 19.6143C0.090927 19.9958 0.0682147 20.3146 0.00575597 20.5708C-0.0680589 21.3109 0.567885 23.6282 1.92494 27.5225C3.282 31.4168 4.86618 35.5502 6.68884 39.9284C8.50583 44.3066 10.0957 47.6259 11.4527 49.8919C13.7013 53.1428 15.5523 54.6743 17.0002 54.4978C18.4538 54.3213 19.4134 54.0879 19.896 53.7975C21.1395 53.0517 21.8152 51.6227 21.9401 49.5047C21.9004 47.9219 21.3894 45.952 20.4127 43.5893C19.2998 41.0045 18.0904 38.4083 16.7901 35.8064V35.8007ZM29.3046 38.1065C27.2832 37.0361 25.7331 35.0264 24.6429 32.1C22.7464 26.9702 22.7124 22.1194 24.5407 17.5476C25.2391 15.8965 26.4031 14.6724 28.0441 13.8583L28.4642 13.7045C28.9526 13.5224 29.4238 13.4313 29.8724 13.4199C30.321 13.4142 30.7071 13.3516 31.0194 13.232L31.7518 12.9587C33.5972 12.2698 35.3688 12.4065 37.0665 13.3629C39.474 14.7294 41.2569 16.984 42.4209 20.1267C43.1818 22.1877 43.4884 24.3569 43.3465 26.6343C43.1648 29.9991 42.3358 32.7262 40.8538 34.8271C39.5535 36.6604 37.9977 37.9129 36.1864 38.5904C35.9423 38.6815 35.2382 38.8922 34.0742 39.2281C32.9102 39.564 31.3203 39.1939 29.2989 38.1179L29.3046 38.1065ZM33.5688 27.6477C33.7619 28.1715 34.0174 28.6953 34.324 29.2134C34.3978 29.3045 34.466 29.4184 34.5398 29.5493C34.6079 29.6803 34.7044 29.8283 34.818 29.982C34.9372 30.1357 35.1133 30.1699 35.3574 30.0788C35.7038 29.9478 35.9536 29.6006 36.0956 29.0312C36.6861 27.1068 36.7088 25.3874 36.1523 23.8901C36.1126 23.7876 35.9082 23.3093 35.5334 22.4553C35.1587 21.6013 34.3865 20.9352 33.2225 20.4569C32.7058 23.2296 32.8193 25.6266 33.5688 27.6534V27.6477ZM47.6277 32.4586C48.6157 33.5859 49.9046 34.0471 51.4888 33.8364C52.7777 33.6656 53.6805 32.8629 54.2029 31.4224C54.7253 29.982 55.1682 28.0747 55.5259 25.7006C55.9063 23.1727 56.5593 20.1552 57.4849 16.6594L57.6382 16.1299C57.7631 15.6631 57.9618 15.1678 58.2287 14.644C57.9221 17.428 57.7858 19.4549 57.8199 20.7245C57.8539 21.9998 57.8937 22.7969 57.9391 23.1328C58.1776 24.9433 58.8476 26.3553 59.9548 27.3687C60.6248 27.921 61.3289 28.143 62.0671 28.0463C62.9528 27.9267 63.6399 27.4143 64.1395 26.5033C64.6392 25.5924 65.0083 24.4822 65.2468 23.1727C65.7975 20.2463 66.8366 17.2003 68.3697 14.0291C68.4038 15.4126 68.2561 16.7448 67.9382 18.0258C67.4839 20.0015 67.2057 22.5521 67.0921 25.6835C67.0694 26.0991 67.0921 26.509 67.1432 26.9133C67.2909 28.0235 67.6656 29.0597 68.2845 30.0276C69.0795 31.2346 69.846 31.8665 70.5842 31.9178C71.3223 31.969 71.8163 31.9804 72.0775 31.9462C72.9973 31.8267 73.815 31.3598 74.5361 30.5514C74.9563 30.0446 75.2458 29.4696 75.4048 28.8319C75.5638 28.1943 75.6774 27.4143 75.7455 26.509C75.7966 25.7518 75.9045 24.8579 76.0635 23.8217C76.4098 21.6355 76.6199 19.2898 76.6824 16.7847C76.7449 14.2796 76.654 12.1047 76.4155 10.26L76.1884 8.93916C75.5809 6.3145 74.837 4.78867 73.9569 4.36166C73.0768 3.93466 72.3444 3.75816 71.7538 3.83787C71.1292 3.92327 70.5103 4.20794 69.9028 4.70327C68.7842 5.60282 67.9041 6.53654 67.2682 7.49873C66.6265 8.46661 66.0417 9.49142 65.508 10.5732L64.9231 11.6663C64.8266 11.5297 64.7698 11.4158 64.7357 11.3247C64.7074 11.2336 64.6846 11.1539 64.6733 11.0799C63.8159 7.96559 62.8847 6.38282 61.8854 6.32589C60.886 6.26895 60.3125 6.25187 60.1649 6.26895C58.4728 6.491 56.9114 8.16486 55.4862 11.2792L55.3158 11.6948C55.2136 12.0478 55.0149 12.4121 54.731 12.7879C54.7026 12.5659 54.6912 12.3609 54.7083 12.173C54.7083 11.6492 54.6856 11.1254 54.6174 10.6073C54.5266 9.90704 54.3562 9.21245 54.1178 8.53493C53.6011 7.4418 53.0446 6.87246 52.4654 6.8383C51.8806 6.80413 51.5115 6.79275 51.3696 6.81552C50.4838 6.93508 49.6889 7.54428 48.9734 8.65449C47.9854 10.5504 47.1053 13.5394 46.3331 17.6216C45.5609 21.7038 45.3565 25.1654 45.7312 28.0064C46.0095 29.8454 46.6454 31.3313 47.6334 32.4586H47.6277ZM80.9921 27.1638C79.635 25.3134 79.1069 22.8368 79.4022 19.7225C79.9189 14.2739 81.9914 9.89566 85.6254 6.5764C86.9654 5.39786 88.5552 4.80005 90.3836 4.78867L90.8265 4.82852C91.3432 4.87976 91.8088 4.99932 92.2176 5.18721C92.6264 5.37509 93.0012 5.48896 93.3305 5.51742L94.1084 5.59144C96.0673 5.77932 97.6061 6.67319 98.719 8.27303C100.292 10.5561 100.922 13.3629 100.604 16.6993C100.394 18.8856 99.7297 20.9693 98.6111 22.962C96.9872 25.9112 95.0566 28.0064 92.8138 29.2533C90.8492 30.335 88.9016 30.7848 86.9824 30.6026C86.7212 30.5798 86.0001 30.4603 84.8077 30.2553C83.6153 30.0503 82.3434 29.0198 80.9864 27.1695L80.9921 27.1638ZM89.3729 21.3451C89.3956 21.459 89.4126 21.5956 89.4183 21.7436C89.4183 21.8917 89.441 22.0625 89.4808 22.2561C89.5205 22.4496 89.6681 22.5521 89.9237 22.5806C90.2927 22.6147 90.6675 22.4098 91.0479 21.96C92.4163 20.4854 93.1772 18.9482 93.3305 17.354C93.3419 17.2458 93.3646 16.7221 93.393 15.7883C93.427 14.8546 93.0182 13.9209 92.1778 12.9815C90.5085 15.2532 89.5716 17.4622 89.3672 19.6143C89.3161 20.1723 89.3161 20.753 89.3672 21.3508L89.3729 21.3451ZM101.535 24.4139C101.694 23.1385 101.973 21.8461 102.376 20.5253C103.051 18.3162 104.289 15.72 106.1 12.7367C108.122 9.4288 110.609 6.57071 113.556 4.16809C115.498 2.5113 117.281 1.44094 118.905 0.968389C121.778 -0.170293 124.634 -0.306935 127.473 0.56985C129.352 1.15058 130.59 1.9932 131.181 3.10911C131.919 4.504 132.044 6.00136 131.555 7.60121C131.078 9.1669 130.232 10.3454 129.017 11.1425C127.785 12.2413 125.627 13.4654 122.533 14.8148C120.188 15.8851 118.206 16.3861 116.599 16.3178C118.246 17.2914 119.461 18.5212 120.245 20.0072C121.17 21.812 121.278 23.8673 120.568 26.1788C119.575 29.4184 117.474 31.7299 114.254 33.1134C111.886 34.1382 109.581 34.3033 107.344 33.6144C106.526 33.3639 105.726 32.9995 104.942 32.527C102.279 30.5798 101.144 27.8754 101.541 24.4139H101.535ZM115.452 12.0535C118.178 12.1502 120.568 11.7403 122.618 10.8123C124.668 9.88427 125.798 9.0815 126.002 8.40968C126.207 7.73216 125.599 7.1799 124.185 6.74151C122.624 6.26326 120.773 6.72443 118.638 8.1307C117.082 9.40602 116.02 10.7155 115.458 12.0592L115.452 12.0535ZM110.495 28.6327C111.239 28.8604 112.108 28.8092 113.107 28.4733C114.101 28.1373 114.964 27.2264 115.691 25.7347C116.048 24.5619 116.026 23.6566 115.617 23.0247C115.208 22.3927 114.669 21.9714 113.993 21.7664C113.919 21.7436 113.652 21.681 113.175 21.5728C112.704 21.4647 112.125 21.6981 111.449 22.2674C110.762 22.9905 110.234 23.9584 109.865 25.1654C109.257 27.1581 109.462 28.3138 110.495 28.627V28.6327ZM130.732 28.2341C130.391 28.8547 130.522 29.4582 131.135 30.0503C133.832 32.7775 134.712 35.1118 133.77 37.0532L133.554 37.4461C132.623 39.1427 131.039 40.2415 128.813 40.7539C126.984 41.1468 125.343 40.9361 123.879 40.1277C123.424 39.8772 122.993 39.5754 122.595 39.2281C119.296 35.664 118.814 31.764 121.147 27.5225C121.67 26.5774 122.601 25.359 123.947 23.873C125.292 22.387 127.234 21.0775 129.761 19.9445C132.288 18.8115 134.633 18.4415 136.796 18.8286C137.421 19.0051 137.926 19.1987 138.318 19.415C139.55 20.0982 139.862 21.0377 139.249 22.2276C139.107 22.4895 138.329 22.9734 136.921 23.6851C135.831 24.2772 134.712 24.9263 133.554 25.6493C132.157 26.4919 131.22 27.3573 130.732 28.2341ZM130.141 34.2179C129.948 33.6884 129.608 33.2842 129.119 33.0166C129.051 32.9824 128.852 32.88 128.523 32.7205C128.188 32.5554 127.717 32.6465 127.104 32.9881C126.417 33.4607 125.883 34.0528 125.485 34.7702C125.201 35.294 125.014 35.8405 124.935 36.4099C124.855 36.9792 125.008 37.3778 125.4 37.5884C125.923 37.8788 126.576 37.9756 127.371 37.8788C128.16 37.7877 128.96 37.2411 129.767 36.2391L129.931 35.943C130.272 35.3224 130.346 34.7474 130.147 34.2122L130.141 34.2179ZM50.6882 68.7428C49.7229 67.7407 48.9677 67.1258 48.4283 66.9095C47.3381 66.4711 46.1117 66.5679 44.7433 67.2112C43.3692 67.9684 41.8815 69.1128 40.2746 70.65C38.6677 72.1873 37.305 73.622 36.1751 74.9543L35.312 75.9164C32.0925 79.5033 30.0711 82.3215 29.2535 84.3712C29.0093 84.9861 28.856 85.5611 28.7992 86.0963C28.7027 87.1268 29.1797 87.8612 30.2358 88.2825C31.0875 88.6241 32.2458 88.163 33.7051 86.882C35.1644 85.6066 36.6407 84.0694 38.134 82.2703C39.6273 80.4712 40.8992 78.8542 41.9553 77.4081L43.46 75.2788L42.0235 78.8656L40.2065 83.5513C38.6393 88.1573 39.1106 90.9698 41.6374 91.9833C42.8638 92.4786 44.0278 92.3305 45.1351 91.5449C46.2423 90.7592 47.1962 89.8084 48.0025 88.6811C48.8088 87.5595 49.3652 86.6713 49.6661 86.0166C49.9671 85.3618 50.2283 84.764 50.444 84.2174C51.8125 80.8014 52.4314 77.7326 52.2894 75.0169C52.1759 71.84 51.6421 69.7448 50.6768 68.7428H50.6882ZM74.1046 82.5493C73.7582 84.3598 73.0087 85.7433 71.8731 86.6998C70.7318 87.662 69.4826 88.2712 68.1256 88.533C66.7628 88.7949 65.525 88.8177 64.4121 88.5957C63.2594 88.3736 62.4759 87.9751 62.0614 87.4057C61.9024 87.6392 61.7604 88.0776 61.6355 88.7323C61.6071 88.8803 61.539 89.2219 61.4368 89.7628C61.3346 90.3037 61.397 91.0211 61.6412 91.9092C61.8797 92.7974 62.5383 93.3497 63.6228 93.5603C64.2361 93.6799 65.1616 93.3497 66.3937 92.5811C67.7735 91.8352 68.6763 91.505 69.1079 91.5904C69.7949 91.7214 70.0561 92.2053 69.8971 93.0365C69.8119 93.4692 69.5167 94.0955 69 94.9154C68.4833 95.7352 67.5407 96.5721 66.1553 97.4318C64.7755 98.2859 63.2197 98.5478 61.4879 98.2118C58.6772 97.6653 56.6899 96.4184 55.5316 94.4656C54.0269 92.0003 53.6067 89.0284 54.2767 85.5554C54.6061 83.8588 55.2931 82.0369 56.3379 80.1068C57.3826 78.171 58.9441 76.5427 61.0109 75.2219C63.0777 73.901 65.4171 73.4911 68.012 73.9921C72.7702 74.9144 74.803 77.7668 74.1046 82.5436V82.5493ZM68.8183 80.568C68.2391 80.4541 67.6827 80.5452 67.1376 80.8356C66.5982 81.1259 66.1042 81.4903 65.6669 81.9287C65.2241 82.3671 64.9004 82.7542 64.6846 83.0901L64.2985 83.6367L64.3212 83.8075C64.3383 83.9214 64.4462 84.1434 64.6449 84.4623C64.8436 84.7811 65.2354 84.9974 65.8089 85.1113C66.7458 85.2935 67.6145 85.0202 68.4095 84.2915C69.2044 83.5627 69.6813 82.7827 69.8403 81.9515C69.988 81.1942 69.6473 80.7331 68.8183 80.568ZM106.748 76.1214C105.936 75.5976 105.232 75.3357 104.647 75.3471C104.022 75.3528 103.381 75.5635 102.728 75.9791C101.524 76.7306 100.553 77.5391 99.8092 78.4159C99.0653 79.2926 98.3726 80.2264 97.7196 81.2284L97.0156 82.2304C96.9418 82.0824 96.8906 81.9629 96.8736 81.8718C96.8509 81.7807 96.8452 81.701 96.8452 81.6212C96.3683 78.4614 95.6415 76.7932 94.6648 76.6224C93.6882 76.4516 93.1261 76.3662 92.9841 76.3662C91.2977 76.3833 89.5659 77.8408 87.8001 80.7331L87.5843 81.1202C87.4423 81.4504 87.2039 81.7864 86.8802 82.1223C86.8802 81.9002 86.8916 81.701 86.9256 81.5131C86.9938 80.995 87.0222 80.4826 87.0165 79.9645C87.0108 79.2642 86.9256 78.5639 86.7723 77.8693C86.3919 76.7306 85.9149 76.11 85.3471 76.0075C84.7736 75.9051 84.4159 75.8538 84.274 75.8538C83.3939 75.8652 82.5365 76.3719 81.7018 77.374C80.5094 79.1218 79.2943 81.9515 78.0565 85.8685C76.8187 89.7856 76.2111 93.1618 76.2452 95.9971C76.302 97.8361 76.7505 99.3733 77.5909 100.592C78.4312 101.816 79.6407 102.419 81.2192 102.402C82.5024 102.385 83.4904 101.702 84.1718 100.353C84.8531 99.0032 85.5118 97.1813 86.1477 94.8869C86.8178 92.4501 87.8114 89.5636 89.1344 86.2329L89.3502 85.7319C89.5262 85.2878 89.7817 84.8266 90.1053 84.3427C89.4751 87.0414 89.106 89.017 88.9925 90.2695C88.8789 91.5221 88.8221 92.3135 88.8278 92.6494C88.8505 94.4542 89.3445 95.9231 90.3098 97.0504C90.906 97.671 91.5703 97.9727 92.3028 97.967C93.1829 97.9556 93.921 97.5343 94.5172 96.6974C95.1134 95.8605 95.6074 94.8129 95.9935 93.5603C96.8793 90.7535 98.2591 87.8783 100.133 84.9519C100.002 86.3183 99.707 87.6107 99.2414 88.8291C98.5657 90.7136 97.9865 93.1903 97.5096 96.2533C97.4414 96.6575 97.4074 97.0675 97.413 97.4717C97.4244 98.5762 97.6742 99.6409 98.1682 100.666C98.8042 101.947 99.4855 102.658 100.207 102.795C100.922 102.932 101.41 103 101.666 103C102.586 102.989 103.443 102.63 104.244 101.918C104.715 101.468 105.067 100.945 105.3 100.33C105.533 99.7206 105.731 98.9748 105.907 98.0866C106.044 97.3464 106.254 96.481 106.538 95.4847C107.134 93.3781 107.617 91.1008 107.974 88.6469C108.332 86.1931 108.497 84.0466 108.48 82.202L108.411 80.8754C108.122 78.228 107.571 76.6395 106.759 76.1157L106.748 76.1214ZM132.061 80.2719C132.589 82.3785 132.651 84.5477 132.265 86.7681C131.72 90.0589 130.607 92.6494 128.926 94.551C127.45 96.2135 125.781 97.2781 123.93 97.7393C123.68 97.8019 122.964 97.9329 121.783 98.1378C120.602 98.3428 119.075 97.8019 117.207 96.5266C115.333 95.2513 114.027 93.1105 113.278 90.1101C111.966 84.8608 112.46 80.084 114.76 75.7855C115.623 74.2426 116.906 73.1608 118.609 72.5403L119.035 72.4321C119.535 72.3068 120.006 72.267 120.449 72.3068C120.892 72.3467 121.278 72.3239 121.596 72.2442L122.345 72.0563C124.236 71.5838 125.962 71.9083 127.53 73.0356C129.75 74.6411 131.26 77.0551 132.061 80.2719ZM125.485 83.2894C125.457 83.1812 125.309 82.6916 125.031 81.8091C124.759 80.9323 124.072 80.1922 122.976 79.5944C122.169 82.2646 122.022 84.6388 122.538 86.7112C122.675 87.2463 122.862 87.7872 123.112 88.3338C123.174 88.4306 123.231 88.5501 123.282 88.6868C123.333 88.8291 123.413 88.9771 123.509 89.1422C123.606 89.3073 123.782 89.3586 124.032 89.296C124.39 89.2049 124.668 88.8917 124.872 88.3452C125.667 86.5119 125.872 84.8323 125.485 83.2951V83.2894ZM166.958 76.6167C166.748 74.624 166.26 72.7111 165.504 70.8778C164.749 69.0445 164.074 67.5984 163.477 66.5394C161.041 62.2067 158.413 59.508 155.579 58.4491C154.279 58.0847 153.177 58.153 152.286 58.6597C151.644 59.0241 151.111 59.639 150.673 60.5215C150.026 62.3661 149.833 65.3723 150.106 69.5284C150.094 69.6594 150.106 69.8017 150.151 69.9441C150.015 69.853 149.793 69.6423 149.481 69.3064C147.573 66.9607 145.353 65.5943 142.815 65.2128C141.481 65.1616 140.379 65.3836 139.516 65.8676C138.46 66.4654 137.818 67.4617 137.591 68.8566C137.137 71.3503 137.398 74.328 138.363 77.7725C139.329 81.2227 140.43 84.3085 141.668 87.03L141.855 87.3659C142.139 88.0947 142.548 88.9373 143.087 89.8995C143.826 91.2146 144.643 91.727 145.529 91.4367C145.887 91.3228 146.125 91.226 146.256 91.152C146.608 90.9527 146.909 90.6965 147.153 90.3891C147.511 89.9792 147.67 89.5465 147.63 89.1024C147.374 87.5993 146.886 85.6749 146.159 83.3407C144.933 79.509 144.285 76.7078 144.217 74.9315C144.427 75.1535 144.751 75.5805 145.194 76.2182C145.819 77.1747 146.625 78.2564 147.613 79.4521C148.601 80.6477 149.702 81.5928 150.912 82.2817C152.121 82.9706 153.336 82.9706 154.551 82.2817C156.022 81.4504 156.238 77.2943 155.193 69.8074L154.943 67.7919L155.613 69.3178C157.078 72.973 158.18 75.4553 158.918 76.7705C159.281 77.4138 159.65 78.0059 160.042 78.5468C161.791 80.6875 163.086 81.5928 163.915 81.2739C164.749 80.9551 165.243 80.7445 165.402 80.6534C166.651 79.9474 167.168 78.598 166.952 76.6054L166.958 76.6167Z" fill="white"/>
</svg>
