<svg width="45" height="42" viewBox="0 0 45 42" fill="none" xmlns="http://www.w3.org/2000/svg">
<path d="M25.3923 27.9037C26.5595 27.173 27.6393 26.4921 28.7244 25.8201C30.4693 24.7393 32.5689 25.6438 32.8767 27.638C33.0345 28.6536 32.6237 29.5082 31.7617 30.0767C29.7651 31.3951 27.7606 32.702 25.7196 33.9526C23.8117 35.1215 21.4956 33.9922 21.1121 31.7604C20.8513 30.2402 20.5788 28.7226 20.3284 27.2011C20.2723 26.8587 20.1197 26.6147 19.7728 26.57C19.4402 26.5266 19.2316 26.7348 19.1142 27.0312C18.6069 28.3176 18.4687 29.6539 18.5886 31.0169C18.7738 33.1159 19.5172 35.0321 20.6022 36.8385C21.2895 37.9844 21.15 39.2925 20.284 40.197C19.4298 41.09 18.1192 41.334 17.0211 40.8064C16.6337 40.6198 16.3116 40.3605 16.0638 40.0118C13.9198 37.002 12.9822 33.6767 13.2469 30.009C13.406 27.8028 14.0059 25.6924 14.5706 23.5717C14.6215 23.3827 14.641 23.1987 14.641 23.0071C14.641 20.8877 14.6384 18.7684 14.641 16.649C14.641 15.9809 14.4493 15.3881 13.9368 14.932C11.6089 12.8625 10.2605 10.2309 9.37103 7.33736C9.11412 6.50061 8.89894 5.65107 8.77374 4.78493C8.54421 3.19957 9.54318 1.91824 11.1251 1.74834C12.6366 1.58482 13.8938 2.68474 14.049 4.24583C14.2511 6.28343 14.9084 8.15368 16.3103 9.72627C16.6298 10.0852 16.9898 10.3139 17.488 10.4174C19.2668 10.7879 21.0339 11.2056 22.8049 11.6131C23.4309 11.7575 24.0334 11.562 24.6424 11.5007C25.2567 11.4394 25.8644 11.3078 26.4786 11.249C26.8386 11.2145 26.8581 11.0894 26.7473 10.7968C26.2452 9.47205 25.747 8.14474 25.2736 6.80976C24.7702 5.39047 25.5749 4.03633 27.0733 3.73228C28.0619 3.53172 29.2004 4.07465 29.5877 5.0481C30.5593 7.49066 31.5204 9.93833 32.3994 12.4141C32.9237 13.8883 31.8178 15.3664 30.2176 15.5401C28.65 15.71 27.0851 15.9106 25.5201 16.1048C24.9646 16.1738 24.7024 16.4484 24.6959 16.985C24.6685 19.4224 24.5942 21.8624 24.6555 24.2986C24.6855 25.4982 25.1432 26.6556 25.3884 27.905L25.3923 27.9037ZM20.3688 10.1836C22.6315 10.1926 24.4833 8.40407 24.4977 6.19784C24.512 4.01589 22.638 2.17758 20.3949 2.17247C18.1687 2.16736 16.3116 3.97245 16.3077 6.14674C16.3038 8.3798 18.11 10.1747 20.3688 10.1836ZM6.54758 21.4536C7.07315 21.8522 7.55437 21.8407 7.87258 21.423C8.17123 21.0308 8.06429 20.5632 7.57654 20.1851C6.92578 19.6818 6.26067 19.195 5.61643 18.684C5.29953 18.4324 4.96828 18.3033 4.58617 18.4784C4.17928 18.6662 4.08929 19.0264 4.0919 19.4365C4.09973 20.5824 4.08538 21.7296 4.09973 22.8755C4.10494 23.2447 4.11016 23.5027 3.59111 23.3201C3.34463 23.2332 3.04207 23.2792 2.7669 23.2894C1.33888 23.3379 0.214714 24.7496 0.513361 26.1127C0.817224 27.5026 1.94008 28.2231 3.5559 28.0659C4.77527 27.9471 5.73641 26.8702 5.74163 25.594C5.74945 24.0508 5.74293 22.5063 5.74293 20.8392C6.07027 21.0896 6.30893 21.2722 6.54889 21.4549L6.54758 21.4536ZM39.8447 14.246C38.8379 14.0378 37.6212 14.5475 37.0434 15.4188C36.5426 16.175 36.5831 17.2226 37.1399 17.9776C37.7959 18.8642 39.087 19.2359 40.2581 18.8757C41.3379 18.5435 42.0044 17.6505 42.0096 16.4957C42.0174 15.1109 42.0083 13.7248 42.0135 12.34C42.0135 12.1931 41.9535 12.0283 42.0982 11.8648C42.346 12.0526 42.5847 12.2378 42.8299 12.4167C43.3124 12.7693 43.7688 12.7539 44.0844 12.3809C44.4118 11.9938 44.3283 11.5339 43.838 11.1456C43.1794 10.6256 42.5064 10.1236 41.8426 9.61002C41.531 9.36857 41.2114 9.22038 40.8137 9.41329C40.4159 9.60746 40.3546 9.94472 40.3572 10.3344C40.3664 11.6553 40.3611 12.9762 40.3611 14.361C40.1603 14.315 40.0025 14.2767 39.8447 14.2448V14.246ZM39.6347 0.917969C39.2618 1.9489 38.5693 2.60937 37.5299 2.99772C38.5667 3.37969 39.2552 4.0491 39.6452 5.07109C40.0312 4.0491 40.7367 3.3963 41.7527 2.98623C40.6807 2.62086 40.0495 1.89908 39.6334 0.917969H39.6347ZM2.30133 2.69113C2.0392 3.49467 1.56449 3.9188 0.758538 4.20879C1.60362 4.44257 2.01051 4.94845 2.34045 5.69962C2.59084 4.88969 3.07729 4.47706 3.86237 4.19473C3.05772 3.92774 2.6078 3.46273 2.30133 2.6924V2.69113ZM8.3525 39.2721C8.60681 38.4749 9.09586 38.0495 9.8666 37.7506C9.07238 37.4823 8.61985 37.0352 8.34729 36.2751C8.04603 37.0097 7.63784 37.4989 6.92057 37.7608C7.61828 38.0163 8.05125 38.4992 8.3525 39.2721ZM38.4454 31.0834C38.2171 30.8573 38.0906 30.5315 37.8533 30.1406C37.6472 30.9352 37.1073 31.3108 36.4774 31.6557C37.2286 31.846 37.582 32.3851 37.9133 33.1069C38.178 32.3379 38.6214 31.8869 39.3961 31.6416C38.9892 31.4117 38.6632 31.3005 38.4441 31.0846L38.4454 31.0834Z" fill="#FF4D46"/>
</svg>
