<svg width="33" height="42" viewBox="0 0 33 42" fill="none" xmlns="http://www.w3.org/2000/svg">
<path d="M16.8206 29.9501C16.8748 28.618 16.8598 27.1102 17.0384 25.6092C17.1306 24.8325 16.8794 24.3158 16.324 24.066C15.5186 23.7045 14.6337 24.2428 14.553 25.1621C14.2488 28.6556 14.2465 32.148 14.6095 35.6404C14.7812 37.2953 15.045 38.932 15.5186 40.5299C15.5785 40.733 15.5497 40.8014 15.3435 40.8425C14.2488 41.0569 13.175 40.9839 12.1149 40.6451C12.0124 40.6121 11.9156 40.5778 11.9098 40.4604C11.8752 39.7852 11.51 39.2217 11.2657 38.6218C10.7023 37.2372 10.481 35.7784 10.2587 34.3208C10.0443 32.9145 9.9487 31.4956 9.98211 30.0699C10.0547 26.9619 10.7921 24.0329 12.3603 21.3253C12.5562 20.9865 12.721 20.6432 12.63 20.2372C12.5147 19.7296 12.1426 19.3681 11.6506 19.2803C11.0767 19.1787 10.6216 19.3772 10.3047 19.9019C9.64797 20.9888 9.10987 22.1339 8.68239 23.3281C7.64077 26.2376 7.31238 29.2373 7.53937 32.3065C7.69493 34.4211 7.99335 36.5106 8.59482 38.5499C8.69046 38.8761 8.80799 39.1989 8.94856 39.508C9.07991 39.7988 9.00271 39.8753 8.69737 39.865C7.15453 39.8148 5.773 39.3141 4.55623 38.388C2.41999 36.7604 1.1652 34.5637 0.689331 31.986C-0.178303 27.2778 0.983151 23.092 4.26702 19.5255C5.73267 17.9333 7.3988 16.5543 9.01654 15.1229C10.0132 14.2413 10.988 13.3391 11.8845 12.3525C12.9261 11.2063 13.425 9.85812 13.6151 8.35259C13.8525 6.46725 13.8029 4.57621 13.8133 2.68631C13.8133 2.50154 13.8064 2.31563 13.8225 2.132C13.9078 1.20017 14.6798 0.698321 15.5728 1.01083C16.7066 1.40775 17.8369 1.81949 18.9603 2.24263C19.5249 2.45592 19.8257 2.8745 19.8234 3.48926C19.8176 4.7701 19.8038 6.04981 19.8164 7.33065C19.8257 8.24081 19.919 9.14528 20.0941 10.0406C20.3384 11.2884 21.1208 12.2122 21.9688 13.0905C23.5992 14.7762 25.3887 16.3023 27.0133 17.9948C28.7543 19.8095 30.3525 21.7302 31.2236 24.1185C32.6431 28.0066 32.8459 31.9256 31.1879 35.7944C30.3041 37.8576 28.7175 39.216 26.4706 39.7316C26.1514 39.8045 25.8173 39.8148 25.4901 39.8559C25.1582 39.8981 25.0994 39.743 25.1755 39.4578C25.4693 38.3435 25.641 37.2086 25.785 36.0669C26.0166 34.2272 26.0846 32.3795 26.0143 30.5318C25.9164 27.9268 25.5592 25.3571 24.7307 22.8684C24.4657 22.0723 24.15 21.2968 23.7698 20.5474C23.4114 19.8403 22.7063 19.5734 22.0483 19.8847C21.4065 20.1881 21.1715 20.9215 21.5264 21.6321C23.1441 24.8724 23.6211 28.3283 23.5497 31.8959C23.4944 34.6196 23.0047 37.2862 22.5622 39.9642C22.4389 40.7079 22.0967 40.9109 21.4607 41.009C20.4168 41.1698 19.4039 41.0523 18.3957 40.782C18.1826 40.725 18.1584 40.5539 18.1042 40.4011C17.5972 38.9742 17.3403 37.4926 17.1559 35.9985C16.9163 34.0482 16.8494 32.0875 16.8229 29.9501H16.8206Z" fill="#FF4D46"/>
</svg>
