<svg width="16" height="42" viewBox="0 0 16 42" fill="none" xmlns="http://www.w3.org/2000/svg">
<path d="M7.87595 0.787678C9.38105 0.787678 10.8862 0.797581 12.3913 0.780605C12.7249 0.776361 12.8868 0.871144 12.999 1.19793C14.4814 5.49571 15.5094 9.88686 15.7238 14.4421C15.7777 15.5823 15.3702 16.6221 14.852 17.6138C13.7856 19.6523 12.1399 21.1222 10.1521 22.2214C9.20641 22.7448 8.77191 23.554 8.76198 24.5485C8.72506 28.0597 8.73784 31.571 8.75346 35.0822C8.7563 35.6947 9.03886 36.2323 9.42365 36.7147C9.86524 37.2679 10.5184 37.1349 11.0892 37.2339C12.2464 37.4362 13.4008 37.671 14.355 38.384C15.5307 39.2625 15.3873 39.322 14.3067 39.9869C13.2645 40.6263 12.076 40.8767 10.8833 41.021C8.46663 41.3124 6.04569 41.3209 3.64889 40.8258C2.6081 40.6107 1.60138 40.2839 0.742336 39.612C0.410078 39.3531 0.412918 39.1381 0.702579 38.8466C1.64256 37.8988 2.8438 37.514 4.10042 37.248C4.44546 37.1745 4.79759 37.1349 5.14689 37.0797C6.2317 36.9057 6.92887 36.187 6.93597 35.0935C6.95727 31.5299 6.96721 27.965 6.92603 24.4014C6.91609 23.4847 6.47166 22.7335 5.60978 22.2525C3.34645 20.9878 1.54174 19.2831 0.489593 16.8626C-0.0442924 15.6333 -0.0570715 14.3629 0.0593609 13.0741C0.422857 9.02249 1.35858 5.09536 2.68761 1.25452C2.81256 0.893778 2.97869 0.772117 3.36065 0.777775C4.86575 0.80041 6.37085 0.786263 7.87595 0.787678Z" fill="#FF4D46"/>
</svg>
