<svg width="30" height="27" viewBox="0 0 30 27" fill="none" xmlns="http://www.w3.org/2000/svg">
<path d="M30 20.5509V21.877C29.9809 21.9207 29.9508 21.963 29.9442 22.0083C29.5458 24.8958 27.2115 26.9947 24.3737 26.997C18.1244 27.0023 11.8759 26.9977 5.6266 27C5.2839 27 4.94487 26.9698 4.60878 26.9064C1.66245 26.3494 -0.385667 23.4739 0.0612354 20.4173C0.357702 18.3871 1.42102 16.9147 3.19689 15.9856C3.66581 15.7403 4.17508 15.6097 4.70857 15.4845C4.64987 15.3909 4.60951 15.3237 4.56621 15.2588C4.10463 14.5667 3.83238 13.7984 3.7612 12.9667C3.56087 10.6218 5.01605 8.50479 7.24836 7.88516C7.49786 7.81573 7.53015 7.76214 7.37384 7.52818C5.66182 4.97571 6.77504 1.39682 9.59881 0.303984C10.4266 -0.0167723 11.2785 -0.00545071 12.1364 0.00285123C12.7154 0.00813428 13.0874 0.368891 13.1271 0.957574C13.1594 1.43833 13.2217 1.91381 13.359 2.3772C13.6657 3.41419 14.241 3.85948 15.286 3.85948C17.0729 3.85948 18.8597 3.84665 20.6466 3.86325C22.545 3.88137 23.8901 5.78176 23.2987 7.6263C23.1901 7.96517 23.2664 8.05573 23.5438 8.18403C25.6132 9.14102 26.708 11.6112 26.0777 13.8535C25.914 14.4369 25.6462 14.9645 25.305 15.4513C25.3783 15.526 25.4561 15.5328 25.5317 15.5509C27.5806 16.046 28.9594 17.3207 29.7013 19.3381C29.8459 19.7313 29.8855 20.1509 30 20.5509ZM15.0005 17.3569C13.4976 17.3569 11.9955 17.3554 10.4926 17.3569C9.64431 17.3577 9.23777 17.9018 9.45792 18.7343C10.103 21.1758 11.9926 22.8279 14.4472 23.0973C17.3026 23.4105 19.9641 21.4422 20.5864 18.5592C20.6165 18.4196 20.6319 18.2852 20.5997 18.1433C20.4866 17.6407 20.1271 17.3592 19.5664 17.3577C18.0445 17.3539 16.5225 17.3569 15.0005 17.3569ZM13.1219 13.5101C13.1337 12.4837 12.2839 11.5976 11.2675 11.5765C10.2739 11.5554 9.41096 12.4241 9.38013 13.4761C9.35005 14.5018 10.2328 15.4226 11.2492 15.4248C12.2516 15.4271 13.1102 14.5486 13.1219 13.5101ZM20.6217 13.5056C20.6283 12.4761 19.7763 11.5924 18.7629 11.5758C17.7678 11.5599 16.9048 12.4324 16.8791 13.4799C16.8542 14.5078 17.7399 15.4279 18.7526 15.4248C19.7572 15.4218 20.6151 14.5411 20.6217 13.5056Z" fill="#FE9C2C"/>
</svg>
