<svg width="28" height="25" viewBox="0 0 28 25" fill="none" xmlns="http://www.w3.org/2000/svg">
<path d="M27.9986 20.3056V21.328C27.9458 21.3757 27.9538 21.4418 27.9429 21.503C27.7782 22.4223 27.3606 23.2106 26.6735 23.8559C25.8123 24.6649 24.7777 25.0015 23.5942 24.9986C19.0945 24.9879 14.5948 24.9951 10.0958 24.9936C8.05545 24.9936 6.0144 25.0164 3.97551 24.9758C2.63672 24.9495 1.55297 24.3426 0.799406 23.2576C-0.236656 21.7663 -0.248215 20.2124 0.663577 18.6542C2.98785 14.6819 5.31646 10.7124 7.64941 6.7451C8.62478 5.08731 9.54669 3.3975 10.5929 1.78168C11.647 0.154486 13.9409 -0.453135 15.7161 0.357263C16.6004 0.761394 17.2463 1.39676 17.7283 2.21997C20.166 6.38579 22.6087 10.5495 25.05 14.7139C25.5681 15.5983 26.0904 16.4798 26.6041 17.3664C27.1496 18.3091 27.7905 19.2084 28 20.3056H27.9986ZM15.5528 9.23464C15.5528 9.23464 15.5463 9.23464 15.5434 9.23464C15.5434 9.08238 15.555 8.9294 15.5413 8.77857C15.4892 8.1866 15.1945 7.74476 14.6446 7.49858C14.0963 7.25311 13.558 7.30292 13.0775 7.66934C12.48 8.1247 12.3724 8.75793 12.4345 9.45449C12.4966 10.1596 12.54 10.8661 12.5833 11.5726C12.6758 13.0846 12.7567 14.5972 12.8557 16.1084C12.8962 16.7281 13.3882 17.1422 14.0312 17.1351C14.6316 17.1287 15.1244 16.6719 15.1612 16.0793C15.1742 15.8736 15.1634 15.6666 15.1757 15.461C15.2999 13.3855 15.4264 11.3101 15.5521 9.23464H15.5528ZM12.4649 19.7534C12.4677 20.5895 13.1621 21.276 14.0052 21.276C14.8397 21.276 15.5427 20.5823 15.5304 19.7719C15.5167 18.8954 14.8289 18.1995 13.9937 18.2166C13.1433 18.2344 12.462 18.9189 12.4649 19.7534Z" fill="#FE9C2C"/>
</svg>
