<svg width="7" height="21" viewBox="0 0 7 21" fill="none" xmlns="http://www.w3.org/2000/svg">
<path d="M1.17516 20.9995C0.474037 20.714 0.261397 20.0784 0.0980344 19.4126C0.0182275 19.0871 0.00537276 18.7523 0.00537276 18.417C0.006444 16.9759 0.00858648 15.5348 0.00162346 14.0937C0.000552231 13.9189 0.0519715 13.88 0.215335 13.8805C2.40494 13.886 4.59507 13.8849 6.78467 13.8821C6.92072 13.8821 7.00106 13.8876 6.99999 14.0723C6.98981 15.6224 6.9941 17.1731 6.9866 18.7233C6.98446 19.1912 6.87894 19.6427 6.6979 20.0723C6.52168 20.491 6.26352 20.8345 5.82645 21H5.54579C5.04445 20.8214 4.79646 20.4049 4.59454 19.903C4.38136 20.3995 4.1414 20.8356 3.62132 21H3.34066C2.85325 20.8071 2.60633 20.3912 2.41297 19.9101C2.05411 20.6526 1.95823 20.7605 1.45636 21H1.1757L1.17516 20.9995ZM6.8061 8.55937C6.95286 8.55992 7.00106 8.52266 6.99892 8.3654C6.98821 7.67553 7.00481 6.98457 6.98446 6.29525C6.96089 5.47442 6.71451 4.71606 6.30637 4.01085C6.26084 3.93194 6.20835 3.89797 6.11569 3.89797C4.37225 3.90071 2.62882 3.90071 0.885391 3.89797C0.792729 3.89797 0.740239 3.93085 0.694176 4.0103C0.287643 4.71551 0.0380455 5.47278 0.0155496 6.2936C-0.00319697 6.97635 0.0128715 7.66019 0.00108794 8.34348C-0.00159015 8.51444 0.0455442 8.56102 0.212657 8.55992C1.30157 8.55225 2.38994 8.55608 3.47885 8.55608C4.58757 8.55608 5.6963 8.55334 6.80503 8.55937H6.8061ZM6.81734 13.4537C6.95339 13.4542 7.00052 13.4224 6.99999 13.2745C6.99463 11.9073 6.9941 10.5408 6.99999 9.17362C7.00052 9.01691 6.95446 8.98129 6.8077 8.98184C4.60311 8.98677 2.39797 8.98623 0.193374 8.98184C0.0476866 8.98184 -0.000518937 9.01527 1.66797e-05 9.17307C0.00590846 10.5331 0.00644408 11.8936 1.66797e-05 13.2536C-0.00105455 13.4197 0.0492935 13.4553 0.203015 13.4547C1.29889 13.4482 2.39422 13.4515 3.49009 13.4515C4.59936 13.4515 5.70808 13.4493 6.81734 13.4542V13.4537ZM5.06106 1.16097C5.06106 0.928635 5.06427 0.696307 5.05999 0.463976C5.05463 0.18507 4.89395 0.00643813 4.62774 0.00424634C3.87306 -0.00123315 3.11784 -0.00178057 2.36316 0.00479482C2.11463 0.00698662 1.94913 0.181234 1.94216 0.432743C1.93466 0.71932 1.93681 1.00699 1.94163 1.29357C1.94484 1.5007 2.04554 1.66453 2.2405 1.70234C2.39797 1.73248 2.35619 1.81138 2.33263 1.89412C2.23032 2.25522 2.00858 2.53029 1.72952 2.76536C1.49385 2.96372 1.27693 3.18125 1.08143 3.45578H5.92072C5.7204 3.17797 5.50401 2.9566 5.26566 2.75824C4.94483 2.49084 4.71184 2.17029 4.63792 1.74453C4.97964 1.64864 5.06106 1.53631 5.06159 1.16042L5.06106 1.16097Z" fill="#FF638E"/>
</svg>
