<svg width="17" height="23" viewBox="0 0 17 23" fill="none" xmlns="http://www.w3.org/2000/svg">
<path d="M9.23727 4.26457C9.21896 5.04773 9.29017 6.04738 9.20947 7.04137C9.1186 8.16128 8.57608 8.97487 7.57107 9.41774C6.73017 9.78845 6.17884 10.423 5.92114 11.3336C5.76653 11.8797 5.84316 12.4372 5.87638 12.9897C5.9503 14.2214 6.03303 15.4531 6.11238 16.6848C6.18969 17.8811 6.27174 19.0775 6.34431 20.2738C6.36601 20.6247 6.41144 20.977 6.37482 21.3293C6.26903 22.3566 5.44169 23.0577 4.43058 22.9791C3.52593 22.9091 2.78947 22.0226 2.84847 21.0477C2.96308 19.1468 3.09125 17.2472 3.21196 15.347C3.27977 14.2823 3.35504 13.2182 3.4059 12.1528C3.46016 11.0265 2.80846 9.954 1.78378 9.48C0.947631 9.09301 0.367816 8.47893 0.104696 7.55428C0.023997 7.272 0.0029739 6.98265 0.00229576 6.69188C-0.000416819 4.82134 -0.00109496 2.95081 0.00229576 1.07956C0.0029739 0.473974 0.337298 0.0509089 0.836413 0.00421628C1.38774 -0.0474286 1.84617 0.381295 1.84888 0.964953C1.85363 2.14713 1.84753 3.33001 1.85228 4.51218C1.85499 5.08452 2.22051 5.49909 2.72233 5.5182C3.27163 5.53942 3.6792 5.14112 3.68191 4.56453C3.68666 3.39085 3.68191 2.21717 3.68462 1.04348C3.68598 0.462653 4.05421 0.0303926 4.55807 0.00209397C5.11686 -0.0290345 5.54748 0.408178 5.54952 1.02438C5.55427 2.21575 5.54816 3.40712 5.55291 4.59778C5.55494 5.03712 5.87232 5.42906 6.267 5.50546C6.71525 5.59248 7.13434 5.36468 7.3032 4.9409C7.36559 4.78385 7.38458 4.62042 7.3839 4.45063C7.38119 3.32081 7.38255 2.1917 7.38255 1.06188C7.38255 0.442138 7.74603 0.0127067 8.2777 0.000679823C8.82293 -0.0120545 9.22778 0.410301 9.23388 1.03216C9.24405 2.03818 9.23659 3.04419 9.23659 4.26315L9.23727 4.26457ZM16.9973 0.685505C16.9973 0.614758 16.9919 0.544012 16.998 0.473973C17.0115 0.317623 16.943 0.278006 16.8027 0.290033C16.4236 0.321868 16.0472 0.362194 15.6783 0.467606C13.4594 1.10079 11.9159 3.05551 11.8508 5.44462C11.7973 7.41066 11.8325 9.37954 11.8325 11.3477C11.8325 12.3021 12.3154 12.8383 13.2254 12.9084C14.0602 12.9727 14.5912 13.6838 14.4766 14.5504C14.3668 15.3788 14.2833 16.2115 14.1904 17.0428C14.0419 18.3728 13.8941 19.7022 13.7496 21.0329C13.6723 21.746 13.911 22.3254 14.4888 22.7131C15.0571 23.0951 15.6573 23.0937 16.2337 22.7202C16.7959 22.3559 17.0014 21.7977 17 21.1227C16.9946 17.7432 16.9973 14.3636 16.9973 10.9841C16.9973 7.55145 16.9973 4.11883 16.9973 0.686212V0.685505Z" fill="#FF638E"/>
</svg>
