<svg width="21" height="21" viewBox="0 0 21 21" fill="none" xmlns="http://www.w3.org/2000/svg">
<path d="M14.9083 17.2493C15.4171 17.2493 15.8927 17.2462 16.3689 17.2518C16.4778 17.2531 16.541 17.2118 16.5948 17.1241C16.6887 16.9713 16.7851 16.8198 16.8896 16.674C17.021 16.4905 17.2275 16.4448 17.4027 16.5494C17.5848 16.6577 17.6468 16.8812 17.5279 17.0797C17.1868 17.6525 16.7707 18.1684 16.2919 18.6324C16.1267 18.7927 15.9189 18.7902 15.7656 18.6505C15.6129 18.5115 15.601 18.3175 15.7343 18.1246C15.7556 18.0939 15.7788 18.0651 15.8282 17.9988C15.4058 17.9988 15.0203 18.0007 14.6348 17.9969C14.5547 17.9963 14.5278 18.047 14.4984 18.1015C14.2086 18.6493 13.8469 19.1458 13.4139 19.6204C13.5359 19.6279 13.6129 19.5621 13.6986 19.5296C13.9408 19.4382 14.1504 19.502 14.238 19.6999C14.3263 19.899 14.2393 20.1093 14.0134 20.217C13.0596 20.6716 12.0527 20.942 11.0007 20.9871C8.33169 21.1017 6.07879 20.1757 4.29838 18.176C3.14064 16.8756 2.48918 15.3379 2.30457 13.603C2.1719 12.3558 2.32334 11.1455 2.74075 9.96659C2.7808 9.85264 2.77705 9.76311 2.72573 9.65667C2.48668 9.16039 2.12183 8.79057 1.6312 8.54723C1.42844 8.44705 1.22693 8.34563 1.02417 8.24608C0.865843 8.16781 0.75883 8.05449 0.763211 7.86666C0.766966 7.68948 0.870849 7.58304 1.02042 7.50853C1.41092 7.31382 1.79954 7.11535 2.19192 6.92439C2.30332 6.87054 2.37779 6.79666 2.43161 6.68459C2.61872 6.29892 2.8171 5.91888 3.00547 5.53445C3.08745 5.36791 3.19634 5.24895 3.39597 5.25396C3.58434 5.25897 3.68572 5.37668 3.76332 5.53383C3.94918 5.91136 4.13943 6.28702 4.32905 6.66268C4.4905 6.98324 4.58688 7.00077 4.83782 6.76411C6.07379 5.59456 7.53567 4.87831 9.2122 4.6047C9.36114 4.58028 9.38555 4.52331 9.38304 4.39559C9.37679 4.07565 9.37929 3.75509 9.38179 3.43515C9.38367 3.13713 9.51258 3.00816 9.80671 3.00315C10.0228 2.99939 10.1309 2.88607 10.1309 2.66318C10.1309 2.38978 9.99153 2.25309 9.71284 2.25309C9.24474 2.25309 8.77601 2.25496 8.30791 2.25246C8.02254 2.25121 7.88549 2.12035 7.88362 1.84424C7.87986 1.36779 7.88049 0.891327 7.88362 0.414868C7.88549 0.136881 8.02067 0.00540129 8.30541 0.00477519C9.14837 0.00289691 9.99133 0.00289691 10.8343 0.00477519C11.0952 0.00477519 11.2504 0.145021 11.2542 0.371667C11.258 0.61021 11.1021 0.752334 10.8249 0.75296C10.1615 0.754838 9.49757 0.759221 8.83421 0.749829C8.66963 0.747325 8.62519 0.79303 8.62645 0.957067C8.63083 1.50365 8.62394 1.50365 9.16964 1.50365C10.1609 1.50365 11.1522 1.49739 12.1435 1.50866C12.3443 1.51116 12.4069 1.45106 12.3806 1.26072C12.3681 1.16869 12.3713 1.07289 12.3806 0.980233C12.3938 0.843744 12.3681 0.761099 12.2148 0.708507C12.0271 0.644645 11.9701 0.469338 12.0146 0.28464C12.0571 0.109333 12.1816 0.00540129 12.3706 0.0041491C12.9151 -0.000233574 13.1685 -0.0797477 13.131 0.71289C13.1135 1.08667 13.131 1.46233 13.1272 1.83736C13.1247 2.1166 12.9902 2.24995 12.7079 2.25121C12.1616 2.25371 11.6153 2.25809 11.069 2.24808C10.9119 2.24557 10.8568 2.29629 10.8787 2.44592C10.8831 2.4766 10.8787 2.50853 10.8793 2.53984C10.8812 2.68008 10.8355 2.85038 10.8987 2.95369C10.972 3.07327 11.1566 2.98624 11.2917 3.00315C11.4926 3.02882 11.624 3.16656 11.6272 3.38256C11.6328 3.72629 11.6328 4.07002 11.6272 4.41312C11.6247 4.53771 11.6616 4.58154 11.793 4.60345C15.2399 5.18447 17.8433 7.66005 18.5811 11.0773C18.899 12.5505 18.7901 14.0068 18.3089 15.4349C18.2225 15.691 18.0235 15.8062 17.8089 15.7361C17.598 15.6672 17.4985 15.4587 17.5873 15.2007C17.648 15.0236 17.6017 14.9941 17.4315 14.9966C16.8695 15.0054 16.3076 15.0023 15.7456 14.9979C15.6348 14.9973 15.551 15.0035 15.5278 15.1394C15.4058 15.855 15.183 16.5425 14.9083 17.2493ZM12.7405 12.7433C12.7405 12.7433 12.738 12.7433 12.7367 12.7433C12.7367 13.1879 12.7424 13.6324 12.733 14.0763C12.7305 14.2053 12.7543 14.2541 12.8938 14.2528C13.5096 14.246 14.1254 14.2485 14.7406 14.2516C14.8451 14.2516 14.9045 14.2441 14.9195 14.1101C15.0222 13.2079 15.0259 12.3069 14.9195 11.4047C14.9058 11.2877 14.8751 11.247 14.7537 11.2482C14.1304 11.2538 13.5065 11.2538 12.8832 11.2482C12.7536 11.247 12.7336 11.292 12.7361 11.411C12.7449 11.8549 12.7392 12.2994 12.7392 12.7439L12.7405 12.7433ZM4.25019 11.2501C3.93854 11.2501 3.62689 11.2545 3.31524 11.2476C3.20009 11.2451 3.16129 11.2801 3.14002 11.3991C2.97543 12.2975 2.97418 13.1935 3.14002 14.0919C3.16067 14.2028 3.18507 14.2528 3.30836 14.2516C3.93917 14.246 4.56998 14.2472 5.20142 14.251C5.31344 14.2516 5.3416 14.2272 5.32846 14.1057C5.22958 13.2048 5.2302 12.3019 5.32783 11.4003C5.34285 11.2614 5.30029 11.2457 5.18577 11.2476C4.87412 11.2526 4.56247 11.2495 4.25082 11.2495L4.25019 11.2501ZM16.7594 14.2497C17.0717 14.2497 17.3833 14.2472 17.6956 14.251C17.7964 14.2522 17.8445 14.2265 17.8652 14.1138C18.0323 13.2066 18.0385 12.3019 17.8708 11.3941C17.8477 11.2676 17.7982 11.2476 17.69 11.2482C17.066 11.2513 16.4415 11.2526 15.8176 11.2476C15.688 11.2463 15.6718 11.2858 15.6855 11.4097C15.7806 12.3044 15.7819 13.201 15.6843 14.0957C15.6693 14.2303 15.7055 14.2535 15.8238 14.2516C16.1355 14.2466 16.4478 14.2497 16.76 14.2497H16.7594ZM10.5114 10.5006C10.9094 10.5006 11.3074 10.49 11.7048 10.505C11.8906 10.5119 11.9301 10.4499 11.9107 10.2796C11.8393 9.65291 11.7855 9.02431 11.6848 8.40072C11.6647 8.27738 11.6197 8.24795 11.507 8.24858C10.8362 8.25234 10.1653 8.25171 9.49444 8.24858C9.39243 8.24858 9.34737 8.27488 9.32922 8.38757C9.22659 9.01868 9.1709 9.65542 9.10081 10.2903C9.08328 10.4487 9.12146 10.5094 9.2948 10.5038C9.70033 10.4913 10.1058 10.5 10.5114 10.5V10.5006ZM13.7286 10.5006C14.0328 10.5006 14.3363 10.4963 14.6404 10.5032C14.7631 10.5057 14.7875 10.4556 14.7643 10.3504C14.6148 9.66544 14.4139 8.99677 14.1342 8.35314C14.101 8.27613 14.0578 8.24983 13.9771 8.25046C13.5021 8.25296 13.0265 8.25359 12.5515 8.25046C12.457 8.25046 12.4395 8.27801 12.4526 8.37317C12.544 9.02807 12.6347 9.68359 12.666 10.3454C12.6716 10.4612 12.7192 10.5063 12.84 10.5032C13.136 10.4956 13.432 10.5006 13.728 10.5006H13.7286ZM7.27971 14.9998C6.98371 14.9998 6.6877 15.0042 6.3917 14.9979C6.27154 14.9954 6.21898 15.0248 6.24714 15.1544C6.39483 15.8319 6.59508 16.4924 6.86856 17.1304C6.90235 17.2086 6.94115 17.2531 7.03753 17.2525C7.505 17.2475 7.97248 17.2468 8.43996 17.2525C8.56512 17.2537 8.56887 17.2105 8.55385 17.1022C8.46624 16.4623 8.37425 15.8225 8.34796 15.1763C8.34233 15.0348 8.28225 14.9929 8.14458 14.9979C7.85671 15.0079 7.56821 15.001 7.27971 15.001V14.9998ZM17.6318 10.5006C17.6343 10.4675 17.6399 10.4506 17.6355 10.4368C17.3983 9.66982 17.0235 8.97423 16.5516 8.32809C16.5178 8.28239 16.4809 8.25046 16.4177 8.25108C15.9227 8.25296 15.4277 8.25171 14.9089 8.25171C15.1886 8.9617 15.4052 9.65792 15.536 10.3792C15.5491 10.4518 15.5766 10.5032 15.6711 10.5032C16.3251 10.4994 16.9791 10.5013 17.6318 10.5013V10.5006ZM10.4863 7.50165C10.7748 7.50165 11.0627 7.49852 11.3512 7.50353C11.4576 7.5054 11.5152 7.486 11.4832 7.3614C11.3305 6.76661 11.1835 6.16994 10.8825 5.62774C10.7961 5.47184 10.7079 5.27337 10.5145 5.26899C10.3055 5.26398 10.2172 5.47247 10.1278 5.634C9.82736 6.17683 9.67967 6.7735 9.52948 7.36829C9.50257 7.47347 9.54262 7.50478 9.64588 7.50353C9.92624 7.49914 10.2066 7.50165 10.487 7.50227L10.4863 7.50165ZM10.5126 17.9994C10.2248 17.9994 9.93625 18.0019 9.64838 17.9981C9.55076 17.9969 9.50069 18.0194 9.52823 18.1296C9.67905 18.7326 9.82862 19.3374 10.1359 19.8852C10.4 20.356 10.614 20.3529 10.8806 19.8758C11.1835 19.3349 11.3293 18.7369 11.482 18.1421C11.5127 18.0226 11.4651 17.995 11.3537 17.9969C11.0733 18.0025 10.793 17.9988 10.5126 17.9988V17.9994ZM4.74896 7.84976C4.03679 7.66381 3.61876 7.1911 3.37532 6.49363C3.17819 7.22804 2.7007 7.64127 2.00919 7.87856C2.71322 8.1052 3.17506 8.53345 3.35717 9.30355C3.55305 8.93729 3.66319 8.6161 3.8697 8.37881C4.08436 8.13213 4.4517 8.07202 4.74896 7.84976ZM7.30475 17.9994C7.79225 18.8597 8.42744 19.4939 9.27916 19.9127C9.05074 19.3054 8.85048 18.6962 8.72845 18.0639C8.71594 17.9981 8.67025 18 8.62457 17.9994C8.19839 17.9988 7.77222 17.9994 7.30475 17.9994ZM7.31288 7.50165C7.76784 7.50165 8.17274 7.49539 8.57701 7.5054C8.70592 7.50853 8.72595 7.44718 8.74722 7.34575C8.86237 6.78101 9.03447 6.23318 9.25976 5.70287C9.27728 5.66155 9.31108 5.62211 9.25225 5.56576C8.42681 6.00904 7.78912 6.64264 7.31288 7.50227V7.50165ZM7.49687 5.92138C6.73276 6.22942 6.06941 6.68021 5.46738 7.22742C5.36788 7.31758 5.43296 7.34199 5.50681 7.38958C5.78654 7.57114 6.09632 7.48224 6.3942 7.49726C6.4499 7.49977 6.46992 7.45219 6.49183 7.41024C6.76968 6.8768 7.11575 6.38908 7.49687 5.92138ZM18.7507 4.98036C18.9441 4.58968 19.1443 4.20212 19.3352 3.81019C19.3859 3.70625 19.4547 3.63801 19.5586 3.5873C19.9429 3.39947 20.3221 3.20037 20.7064 3.01191C20.8709 2.93115 20.9967 2.82784 20.998 2.62874C20.9992 2.42902 20.8741 2.32509 20.7089 2.24432C20.3246 2.05649 19.9447 1.85927 19.5605 1.67207C19.4491 1.61822 19.374 1.54372 19.3202 1.4329C19.1331 1.04848 18.9378 0.667811 18.7482 0.284014C18.6712 0.128116 18.5692 0.00915786 18.3809 0.00477519C18.1819 0.000392521 18.073 0.118725 17.991 0.28464C17.802 0.668437 17.6036 1.04785 17.4165 1.4329C17.3627 1.54372 17.292 1.61948 17.1806 1.67332C16.7957 1.86052 16.4158 2.05837 16.0316 2.24682C15.8658 2.32822 15.7469 2.43465 15.7506 2.63626C15.7544 2.82722 15.8701 2.92614 16.0278 3.00315C16.4127 3.19098 16.7919 3.38882 17.1774 3.57477C17.297 3.63237 17.3739 3.71439 17.4315 3.8321C17.6186 4.21715 17.8145 4.59781 18.0035 4.98161C18.0817 5.14001 18.1912 5.24708 18.3777 5.25208C18.5642 5.24582 18.6731 5.13814 18.7513 4.98036H18.7507ZM19.5004 18.71C19.5004 18.9755 19.5023 19.2403 19.5004 19.5058C19.4954 20.1763 18.9641 20.6603 18.2764 20.6227C17.6606 20.5889 17.2012 20.028 17.2557 19.3762C17.307 18.7601 17.9196 18.2774 18.5505 18.3907C18.7632 18.4289 18.757 18.3513 18.7538 18.201C18.747 17.8967 18.7495 17.5924 18.7526 17.2882C18.7557 17.0089 18.889 16.8774 19.1719 16.8756C19.64 16.8731 20.1075 16.8731 20.5756 16.8756C20.8484 16.8768 21.0055 17.0227 20.9999 17.2606C20.9942 17.486 20.839 17.6212 20.5768 17.6237C20.2958 17.6262 20.0142 17.6388 19.7351 17.6194C19.5311 17.6056 19.4867 17.6795 19.4973 17.8679C19.5136 18.1478 19.5017 18.4295 19.5017 18.71H19.5004ZM18.3827 19.1257C18.1912 19.1214 18.0041 19.3054 18.0041 19.4983C18.0041 19.6817 18.1737 19.8602 18.3583 19.8714C18.548 19.8827 18.7401 19.7049 18.7488 19.5114C18.757 19.3205 18.5767 19.1308 18.3834 19.1264L18.3827 19.1257ZM1.51292 18.124C1.51292 18.0695 1.52231 18.0125 1.51167 17.9606C1.40842 17.4779 1.72382 17.208 2.03735 16.9488C2.19255 16.8205 2.37466 16.8392 2.52673 16.9801C2.66879 17.1116 2.70508 17.3639 2.54988 17.4822C2.23948 17.7189 2.25263 18.0282 2.25951 18.3582C2.27015 18.8578 2.26389 19.3574 2.26201 19.8577C2.25951 20.5489 1.73383 21.0372 1.03606 20.9978C0.419644 20.9627 -0.0396965 20.3986 0.0172518 19.7475C0.0716968 19.1301 0.685611 18.6537 1.3183 18.7657C1.50667 18.7989 1.52607 18.7495 1.51605 18.5929C1.50542 18.4377 1.51355 18.2805 1.51355 18.1246L1.51292 18.124ZM1.5098 19.8689C1.50729 19.6755 1.3183 19.4939 1.12743 19.5008C0.943443 19.507 0.770095 19.6823 0.765714 19.8664C0.761333 20.0586 0.944068 20.2458 1.13682 20.2458C1.32956 20.2458 1.51292 20.0611 1.51042 19.8689H1.5098ZM1.51292 1.55248C1.51292 1.18434 1.5123 0.827465 1.51292 0.470591C1.51355 0.165682 1.63809 0.00790567 1.87965 0.003523C2.13122 -0.00085967 2.26139 0.159421 2.26139 0.47873C2.26139 1.18935 2.26264 1.89997 2.26139 2.61059C2.26014 3.20788 1.8252 3.70312 1.26698 3.74883C0.658701 3.79892 0.122387 3.41387 0.0203808 2.85351C-0.0910124 2.24432 0.263193 1.68835 0.86334 1.53057C1.07173 1.47547 1.28013 1.49989 1.51292 1.55186V1.55248ZM1.5098 2.63438C1.51418 2.44154 1.33207 2.25559 1.13869 2.25559C0.944694 2.25559 0.763211 2.43966 0.765714 2.6325C0.768217 2.81657 0.939062 2.99188 1.12493 3.00002C1.31642 3.00816 1.50479 2.82909 1.5098 2.63438Z" fill="#FF638E"/>
</svg>
