<svg width="20" height="20" viewBox="0 0 20 20" fill="none" xmlns="http://www.w3.org/2000/svg">
<path d="M10.0202 19.0538C13.2207 19.0538 16.4207 19.0538 19.6211 19.0538C19.953 19.0538 19.9935 19.0975 19.9982 19.4246C20.0066 20.0037 20.0092 20 19.4308 20C13.0829 19.9974 6.73451 19.9984 0.386645 19.9984C0.0400919 19.9984 0.00538206 19.96 0.000123281 19.6176C-0.00548608 19.2407 0.180326 19.0523 0.557555 19.0523C3.71177 19.0559 6.86598 19.0538 10.0207 19.0538H10.0202ZM0.5544 5.35356C0.185234 5.35356 0.000649673 5.53589 0.000649673 5.90054C0.000649673 6.26713 0.0327287 6.29816 0.408731 6.29816C6.75029 6.29816 13.0918 6.2971 19.4329 6.29973C19.9993 6.29973 20.0066 6.30447 19.9977 5.74118C19.9919 5.39354 19.9577 5.35356 19.6175 5.35356C16.4107 5.35356 13.2039 5.35356 9.99706 5.35356C6.84915 5.35356 3.70125 5.35356 0.553874 5.35356H0.5544ZM1.73131 17.5165C1.73026 17.6238 1.75708 17.7111 1.85384 17.7658C2.07261 17.8894 2.37183 17.7784 2.46018 17.5386C2.62268 17.0968 2.78675 16.6555 2.94188 16.2111C2.97817 16.1075 3.01288 16.0675 3.13278 16.0949C3.87163 16.2627 4.61312 16.2648 5.35303 16.0991C5.4661 16.0738 5.52236 16.0896 5.56443 16.2148C5.71221 16.6545 5.87681 17.0889 6.03615 17.5244C6.13238 17.7874 6.27069 17.8568 6.5799 17.7895C6.79025 17.7437 6.77132 17.5738 6.77132 17.4139C6.77027 16.1285 6.7729 14.8426 6.76764 13.5572C6.76712 13.422 6.79815 13.3673 6.94013 13.3821C7.05688 13.3942 7.17625 13.3858 7.29405 13.3842C7.6427 13.3789 7.94193 13.1412 8.0166 12.8014C8.05289 12.6352 8.05709 12.458 7.88198 12.3665C7.44813 12.1393 7.02217 11.8926 6.52416 11.8195C5.87418 11.7243 5.454 11.9915 5.2731 12.631C5.19632 12.9014 5.11796 13.1712 5.04119 13.4415C4.92286 13.8591 4.72198 14.0137 4.29181 14.0143C3.85218 14.0153 3.41307 14.0121 2.97344 14.0148C2.29032 14.019 1.73815 14.5707 1.73394 15.2528C1.73184 15.6136 1.73394 15.9744 1.73394 16.3352C1.73394 16.7286 1.73605 17.1226 1.73236 17.516L1.73131 17.5165ZM13.3827 17.5112C13.3816 17.627 13.4116 17.7206 13.5178 17.7732C13.7424 17.8847 14.0227 17.7742 14.1084 17.5417C14.2735 17.0942 14.4397 16.6466 14.598 16.1964C14.6332 16.0954 14.6737 16.0712 14.7799 16.0949C15.5188 16.2616 16.2603 16.2663 17.0002 16.0996C17.1259 16.0712 17.1769 16.1054 17.22 16.23C17.3746 16.6813 17.5492 17.1257 17.7075 17.5759C17.7969 17.8305 17.9226 17.8095 18.2265 17.7868C18.4121 17.7732 18.4242 17.6149 18.4242 17.4592C18.4216 16.2721 18.4221 15.0845 18.4237 13.8975C18.4237 13.735 18.3727 13.5246 18.4537 13.422C18.541 13.3116 18.7603 13.3994 18.9212 13.3847C18.9275 13.3842 18.9343 13.3847 18.9407 13.3847C19.2919 13.3794 19.5885 13.1475 19.6669 12.8067C19.7053 12.6405 19.7116 12.4611 19.5381 12.3696C19.0995 12.1377 18.6672 11.8868 18.1613 11.8184C17.5145 11.7311 17.1032 11.9967 16.9255 12.6263C16.8456 12.9092 16.7667 13.1927 16.6846 13.4752C16.5753 13.8528 16.3618 14.0132 15.9679 14.0148C15.5151 14.0164 15.0628 14.0121 14.6101 14.0158C13.9406 14.0211 13.39 14.5765 13.3848 15.2486C13.3821 15.6094 13.3848 15.9702 13.3848 16.331C13.3848 16.7244 13.3874 17.1184 13.3832 17.5118L13.3827 17.5112ZM11.9265 4.86707C11.8056 4.45631 11.6888 4.06185 11.5726 3.66739C11.2602 2.60762 10.9505 1.54732 10.6334 0.489126C10.5387 0.170931 10.301 0 9.99811 0C9.69678 0 9.46592 0.175665 9.36232 0.489126C9.315 0.631656 9.27398 0.776291 9.23138 0.920399C8.84591 2.23052 8.46097 3.54064 8.0713 4.86654H11.927L11.9265 4.86707ZM11.2234 0.8373C11.6057 2.14058 11.9896 3.44387 12.3693 4.74821C12.4008 4.85708 12.454 4.88442 12.5623 4.8839C13.4142 4.87917 14.2667 4.88179 15.1186 4.88022C15.1654 4.88022 15.2238 4.90704 15.2664 4.84077C13.9269 3.48594 12.5875 2.13059 11.2281 0.755779C11.2245 0.812055 11.2203 0.826255 11.2234 0.837826V0.8373ZM8.74704 0.777868C7.40711 2.13375 6.06717 3.49015 4.69305 4.88074C5.6654 4.88074 6.58096 4.87917 7.49704 4.88232C7.61746 4.88232 7.6101 4.79133 7.62956 4.72506C7.8194 4.08657 8.00398 3.44702 8.19172 2.808C8.3884 2.13901 8.58665 1.47053 8.78386 0.802062C8.77176 0.794173 8.75914 0.786283 8.74704 0.778394V0.777868ZM11.906 0.772083C11.9134 0.782602 11.9197 0.794699 11.9286 0.804165C13.2417 2.13322 14.5554 3.46123 15.8664 4.79186C15.9389 4.86549 16.0141 4.88232 16.1104 4.88232C16.9166 4.87969 17.7227 4.88127 18.5289 4.87916C18.5752 4.87916 18.632 4.90599 18.6782 4.84077C16.4249 3.47227 14.1741 2.10587 11.9239 0.739475C11.9176 0.749993 11.9118 0.761038 11.9055 0.771557L11.906 0.772083ZM8.07024 0.74263C5.82054 2.10903 3.57031 3.47543 1.3206 4.84182C2.21354 4.88074 3.09071 4.87969 3.96787 4.88179C4.05517 4.88179 4.09461 4.82342 4.14404 4.77345C4.69884 4.2149 5.24575 3.64846 5.80792 3.0978C6.58621 2.33624 7.37556 1.58677 8.16069 0.831514L8.07024 0.742104V0.74263ZM8.80279 14.6186C9.59318 14.2252 10.3825 13.8302 11.1729 13.4368C11.2229 13.4115 11.2586 13.3847 11.2586 13.3205C11.2565 12.9824 11.2576 12.6436 11.2576 12.3055C11.2276 12.3055 11.2134 12.3013 11.2034 12.306C10.4125 12.6994 9.62263 13.0944 8.83119 13.4862C8.76177 13.5204 8.73706 13.5625 8.73811 13.6377C8.74126 13.9653 8.73916 14.2925 8.73916 14.6254C8.76651 14.6228 8.78754 14.6259 8.80279 14.6186ZM8.79595 17.8978C9.58582 17.5049 10.3757 17.1115 11.1645 16.7176C11.2092 16.695 11.2586 16.6766 11.2581 16.6077C11.256 16.2648 11.2571 15.9218 11.2571 15.5505C10.4246 15.9671 9.62474 16.3678 8.82383 16.767C8.77334 16.7923 8.73811 16.8191 8.73811 16.8833C8.74021 17.2214 8.73916 17.5591 8.73916 17.8983C8.77071 17.8983 8.78543 17.9025 8.79543 17.8978H8.79595ZM8.82172 15.1298C8.77229 15.1545 8.73758 15.1808 8.73811 15.246C8.74074 15.5837 8.73969 15.9213 8.73969 16.2658C8.77965 16.2595 8.80069 16.2606 8.81699 16.2527C9.5995 15.8619 10.3815 15.4701 11.1645 15.0809C11.2323 15.0472 11.2602 15.0067 11.2597 14.931C11.2565 14.6044 11.2581 14.2778 11.2581 13.9133C10.422 14.3314 9.62211 14.7311 8.82172 15.1303V15.1298ZM11.1777 11.7979C11.2276 11.7727 11.2592 11.7438 11.2586 11.6796C11.256 11.3425 11.2576 11.0053 11.2576 10.6693C11.2234 10.6693 11.2082 10.6651 11.1982 10.6698C10.4088 11.0627 9.62053 11.4571 8.83119 11.8495C8.77439 11.8779 8.73706 11.9073 8.73811 11.9804C8.74126 12.3128 8.73969 12.6452 8.73969 13.0155C9.57794 12.5963 10.3778 12.1966 11.1782 11.7974L11.1777 11.7979ZM11.2218 9.02569C10.4199 9.42383 9.61843 9.8225 8.81646 10.2201C8.77334 10.2417 8.73864 10.2622 8.73916 10.3185C8.74021 10.6614 8.73969 11.0043 8.73969 11.3767C9.57794 10.958 10.3836 10.5551 11.1892 10.1528C11.2344 10.1302 11.2581 10.0986 11.2576 10.0455C11.2565 9.70731 11.2571 9.36861 11.2571 9.03569C11.2339 9.02832 11.2255 9.02254 11.2213 9.02464L11.2218 9.02569ZM8.92953 9.64473C9.6768 9.27131 10.4241 8.89789 11.1719 8.52552C11.2302 8.4966 11.2623 8.46136 11.2592 8.39088C11.2539 8.26676 11.255 8.14211 11.2586 8.01746C11.2618 7.90964 11.1871 7.83864 11.1151 7.7992C11.052 7.76448 11.0173 7.86652 10.9752 7.9107C10.4278 8.48555 9.57005 8.48502 9.0205 7.90912C8.97896 7.86546 8.94583 7.76238 8.88062 7.7992C8.8091 7.83969 8.73811 7.91017 8.73863 8.01851C8.74126 8.58075 8.73969 9.14298 8.73969 9.73519C8.82541 9.69417 8.87799 9.66997 8.92953 9.6442V9.64473ZM2.8346 8.44295C2.8346 10.0681 2.83355 11.6927 2.83671 13.3179C2.83671 13.4168 2.76887 13.5598 2.98711 13.5477C3.30579 13.5299 3.30684 13.5441 3.30684 13.3242C3.30684 11.7648 3.30211 10.2054 3.3121 8.64596C3.31368 8.42454 3.28528 8.28464 3.03076 8.28411C2.97501 8.28411 2.91927 8.25256 2.83513 8.22679V8.44295H2.8346ZM14.7016 8.30042C14.4959 8.29516 14.4828 8.40508 14.4833 8.57233C14.4891 10.1381 14.4865 11.7038 14.4865 13.2695C14.4865 13.5435 14.4865 13.5346 14.7668 13.5456C14.9193 13.5514 14.9629 13.5099 14.9619 13.3531C14.9556 11.7022 14.9582 10.0513 14.9582 8.40035V8.23257C14.863 8.25939 14.7815 8.30252 14.701 8.30042H14.7016ZM4.61312 13.2611C4.68569 12.9434 4.77772 12.6289 4.88395 12.3207C5.06432 11.7964 5.43296 11.4771 5.98145 11.3682C6.30592 11.3035 6.61724 11.3714 6.93119 11.4387C6.97957 11.4492 7.06634 11.5223 7.08264 11.4103C7.15416 10.9233 6.88597 10.6282 6.49051 10.6282C5.56076 10.6282 4.71514 11.251 4.41592 12.174C4.29339 12.5527 4.18401 12.9355 4.06884 13.3163C4.02326 13.4674 4.08988 13.543 4.26867 13.543C4.47061 13.594 4.56317 13.4799 4.61312 13.2622V13.2611ZM16.1572 11.9489C15.9442 12.4254 15.8438 12.9434 15.6849 13.4405C15.6739 13.4746 15.6529 13.5115 15.7044 13.5383C15.89 13.635 16.1935 13.5072 16.2513 13.3053C16.3433 12.9855 16.4264 12.6631 16.5285 12.3465C16.7046 11.8011 17.0801 11.475 17.6449 11.3661C17.9694 11.3035 18.2807 11.3714 18.5941 11.4419C18.6388 11.4519 18.7219 11.526 18.7371 11.3972C18.8034 10.8539 18.4689 10.5898 18.0861 10.6246C17.1937 10.7013 16.5258 11.1216 16.1567 11.9484L16.1572 11.9489ZM11.0625 17.2867C10.3426 17.6448 9.62368 18.0051 8.90481 18.3648C8.86957 18.3822 8.83644 18.4043 8.79963 18.4174C8.74494 18.4374 8.73758 18.4785 8.74126 18.5268C8.74704 18.5999 8.8049 18.58 8.84539 18.58C9.61212 18.581 10.3788 18.5805 11.1451 18.5815C11.2092 18.5815 11.2592 18.5784 11.2586 18.4905C11.256 18.0672 11.2576 17.6433 11.2576 17.2183C11.1703 17.2125 11.1188 17.2583 11.0625 17.2867ZM1.68136 13.7818C1.10499 13.8186 0.572803 14.3545 0.554924 14.931C0.542302 15.3438 0.555976 15.7572 0.54914 16.1706C0.547036 16.2989 0.598048 16.3105 0.701645 16.2842C1.03505 16.1995 1.27012 15.9076 1.25645 15.5437C1.2291 14.8253 1.45207 14.2309 2.11625 13.7813C1.92799 13.7813 1.80441 13.7744 1.68136 13.7823V13.7818ZM13.4542 13.7802C12.7584 13.7823 12.2073 14.3319 12.2036 15.0262C12.2015 15.4001 12.2084 15.7741 12.2005 16.148C12.1973 16.2874 12.2362 16.3189 12.3693 16.279C12.7053 16.178 12.922 15.9013 12.9088 15.5269C12.8836 14.8142 13.1103 14.2278 13.7345 13.8044C13.6309 13.7613 13.5404 13.7807 13.4542 13.7807V13.7802ZM16.0809 6.7715C15.7239 6.7715 15.6786 6.82988 15.7575 7.18805C15.7602 7.20067 15.7665 7.21277 15.7701 7.22539C15.8942 7.67507 16.3318 7.95224 16.7788 7.86441C17.2316 7.775 17.5255 7.35372 17.4803 6.87354C17.4714 6.78045 17.4309 6.77045 17.3567 6.77098C17.108 6.77308 16.8598 6.77203 16.611 6.77203C16.4343 6.77203 16.2576 6.77203 16.0809 6.77203V6.7715ZM13.8854 6.7715C13.5199 6.7715 13.47 6.8362 13.5562 7.19857C13.5578 7.20488 13.5609 7.21067 13.563 7.21698C13.685 7.67455 14.1357 7.95908 14.5853 7.86178C15.0381 7.76343 15.3347 7.32743 15.2763 6.86197C15.2632 6.75836 15.2059 6.7715 15.1422 6.7715C14.9003 6.7715 14.6579 6.7715 14.416 6.7715C14.2393 6.7715 14.0626 6.7715 13.8859 6.7715H13.8854ZM11.6725 6.7715C11.3154 6.7715 11.2702 6.82988 11.3491 7.18805C11.3517 7.20067 11.358 7.21277 11.3617 7.22539C11.4858 7.67507 11.9233 7.95224 12.3703 7.86441C12.8231 7.775 13.1171 7.35372 13.0719 6.87354C13.0629 6.78045 13.0224 6.77045 12.9483 6.77098C12.6995 6.77308 12.4513 6.77203 12.2026 6.77203C12.0259 6.77203 11.8492 6.77203 11.6725 6.77203V6.7715ZM9.25452 6.77098C9.18142 6.77045 9.13672 6.77782 9.13094 6.87301C9.10832 7.2417 9.22033 7.54727 9.54322 7.74555C9.8414 7.92858 10.1538 7.92858 10.4525 7.74713C10.7764 7.5499 10.8879 7.24433 10.8669 6.87564C10.8616 6.7836 10.8222 6.76993 10.7459 6.77098C10.4972 6.77361 10.249 6.77203 10.0002 6.77203C9.75147 6.77203 9.50326 6.77308 9.25452 6.7715V6.77098ZM7.26512 6.7715C6.90648 6.7715 6.86178 6.82831 6.94013 7.187C6.94855 7.22539 6.96117 7.26273 6.97431 7.29955C7.12208 7.71557 7.57802 7.96224 7.99767 7.85389C8.44572 7.73819 8.7339 7.2985 8.66238 6.85513C8.64818 6.76624 8.59928 6.77203 8.5409 6.77203C8.299 6.77203 8.05657 6.77203 7.81467 6.77203C7.63166 6.77203 7.44813 6.77203 7.26512 6.77203V6.7715ZM5.0496 6.7715C4.68832 6.7715 4.68096 6.77992 4.72882 7.14019C4.73197 7.16596 4.73881 7.19121 4.74564 7.21645C4.86659 7.67455 5.31727 7.95908 5.7669 7.86231C6.21968 7.76501 6.51575 7.33006 6.45895 6.86354C6.44633 6.76099 6.39006 6.77203 6.32538 6.77203C6.08348 6.77203 5.84105 6.77203 5.59914 6.77203C5.41614 6.77203 5.23261 6.77203 5.0496 6.77203V6.7715ZM18.2859 6.7715C17.9289 6.7715 17.8836 6.82936 17.962 7.18805C17.9646 7.20067 17.9709 7.21277 17.9746 7.22539C18.0987 7.67507 18.5363 7.95224 18.9833 7.86441C19.436 7.77553 19.73 7.35425 19.6848 6.87354C19.6758 6.78045 19.6359 6.76993 19.5617 6.77098C19.313 6.77308 19.0648 6.77203 18.816 6.77203C18.6393 6.77203 18.4626 6.77203 18.2859 6.77203V6.7715ZM0.45343 6.77256C0.394005 6.77256 0.311969 6.74731 0.316176 6.85671C0.320909 6.9803 0.304081 7.1039 0.339315 7.22697C0.466577 7.67613 0.903057 7.9533 1.34953 7.86441C1.80283 7.77448 2.0968 7.35162 2.05 6.87249C2.04106 6.77834 1.99846 6.77045 1.92536 6.77098C1.67662 6.77308 1.42841 6.7715 1.17967 6.7715C0.937763 6.7715 0.695333 6.77045 0.45343 6.77203V6.77256ZM2.85564 6.7715C2.49804 6.7715 2.45282 6.82936 2.5317 7.18753C2.54011 7.22592 2.55274 7.26326 2.56588 7.30008C2.71418 7.7161 3.17011 7.96224 3.58976 7.85337C4.03781 7.73713 4.32652 7.29587 4.25342 6.85408C4.2387 6.76467 4.18926 6.77203 4.13089 6.77203C3.88215 6.77203 3.63394 6.77203 3.3852 6.77203C3.2085 6.77203 3.03181 6.77203 2.85511 6.77203L2.85564 6.7715ZM16.2965 0.736845C16.3092 0.468088 16.1146 0.249297 15.8532 0.2372C15.584 0.225103 15.3652 0.419176 15.3531 0.680043C15.341 0.947748 15.5361 1.16812 15.7964 1.18021C16.0646 1.19284 16.2839 0.997712 16.2965 0.736845ZM0.552295 10.1554C0.552295 10.4215 0.757388 10.6282 1.02296 10.6288C1.28905 10.6288 1.49572 10.4236 1.49625 10.158C1.49677 9.89192 1.29168 9.68575 1.02558 9.68522C0.758965 9.6847 0.552821 9.88982 0.552295 10.1554ZM18.8171 2.91162C18.8171 3.17774 19.0222 3.38444 19.2877 3.38496C19.5538 3.38496 19.7605 3.17985 19.761 2.91425C19.7616 2.64812 19.5565 2.44195 19.2904 2.44142C19.0238 2.4409 18.8176 2.64601 18.8171 2.91162ZM2.75572 1.64778C2.75362 1.38218 2.5459 1.17916 2.27823 1.18179C2.01213 1.1839 1.80967 1.39164 1.81177 1.65882C1.81388 1.92337 2.0237 2.12796 2.28927 2.12533C2.55431 2.1227 2.75783 1.9139 2.75572 1.64778Z" fill="#FF638E"/>
</svg>
