<svg width="18" height="15" viewBox="0 0 18 15" fill="none" xmlns="http://www.w3.org/2000/svg">
<path d="M0 3.48342V0.0152296C0.0871703 0.0109288 0.174779 0.00275682 0.261949 0.00275682C6.07903 0.00232673 11.8961 0.00232631 17.7136 0.00232631C17.7665 0.00232631 17.8197 0.00662762 17.8717 0.00146662C17.9738 -0.00885538 17.9993 0.0354428 17.9989 0.130061C17.9963 1.20613 17.9954 2.28177 17.9998 3.35784C18.0002 3.47396 17.9522 3.48643 17.855 3.48471C17.5798 3.47998 17.3042 3.48858 17.029 3.48041C16.9115 3.47697 16.8692 3.50234 16.8697 3.62836C16.8732 6.98774 16.8732 10.3471 16.8701 13.7065C16.8701 13.817 16.8987 13.8557 17.0158 13.8523C17.2967 13.8446 17.578 13.854 17.8593 13.8476C17.9637 13.8454 18.0033 13.8704 17.9998 13.98C17.9914 14.2432 17.9994 14.5065 17.9967 14.7697C17.9941 15.0243 18.0399 14.9993 17.766 14.9993C11.9137 14.9998 6.06142 14.9998 0.209121 14.9993C0.139561 14.9993 0.0695602 14.9912 0 14.9869C0 14.6092 0 14.2312 0 13.8536C0.310379 13.8523 0.621194 13.8398 0.931133 13.8536C1.10107 13.8613 1.12837 13.8011 1.12837 13.6519C1.12397 11.2658 1.12529 8.87924 1.12529 6.49314C1.12529 5.54309 1.12309 4.59304 1.12793 3.64341C1.12881 3.51998 1.10372 3.47482 0.966356 3.47955C0.64453 3.4903 0.322266 3.48299 0 3.48342ZM11.8442 13.8497C12.3267 13.8497 12.7718 13.842 13.2164 13.8536C13.3767 13.8579 13.4088 13.8071 13.4084 13.6605C13.4035 11.6124 13.4035 9.56437 13.4093 7.51588C13.4093 7.37094 13.3661 7.31718 13.2248 7.29611C12.8052 7.23375 12.416 7.08107 12.0365 6.9C11.4158 6.6041 10.8545 6.20542 10.2302 5.91554C9.51345 5.58266 8.78263 5.53535 8.03772 5.80501C7.48036 6.00672 6.99388 6.3396 6.48274 6.62604C5.93375 6.93398 5.36978 7.20923 4.73449 7.30471C4.60109 7.3245 4.59009 7.39374 4.59009 7.50255C4.59273 9.55663 4.59185 11.6103 4.59185 13.6644C4.59185 13.6871 4.59405 13.7104 4.59185 13.7332C4.58304 13.8226 4.62355 13.8536 4.71424 13.851C4.90135 13.8463 5.0889 13.8497 5.27645 13.8497C5.55953 13.8497 5.84261 13.8497 6.14419 13.8497C6.12129 13.7985 6.11293 13.7714 6.09884 13.7482C5.85362 13.3435 5.75897 12.9044 5.76205 12.4369C5.76601 11.7926 5.88267 11.1651 6.035 10.5424C6.10456 10.2585 6.18821 9.97811 6.27054 9.67576C6.66589 9.96606 7.04143 10.2293 7.40111 10.5114C7.53847 10.6194 7.59174 10.5819 7.67627 10.4602C8.08043 9.87876 8.49602 9.3046 8.89973 8.72269C8.9847 8.60012 9.02125 8.61646 9.09785 8.72614C9.51345 9.32094 9.93741 9.91015 10.3526 10.505C10.4182 10.5987 10.46 10.6103 10.5547 10.5385C10.8963 10.2783 11.2485 10.0314 11.5888 9.77038C11.7064 9.68006 11.7385 9.70415 11.7742 9.83403C11.945 10.4512 12.1065 11.0697 12.1858 11.7053C12.2452 12.1836 12.2738 12.6623 12.1567 13.1375C12.0964 13.3822 11.9837 13.6059 11.8433 13.8497H11.8442Z" fill="#FF638E"/>
</svg>
