<svg width="22" height="20" viewBox="0 0 22 20" fill="none" xmlns="http://www.w3.org/2000/svg">
<path d="M0 13.1658C0.0562552 12.9353 0.104475 12.7025 0.16934 12.4744C0.619956 10.8983 2.17558 9.44945 4.32591 9.63443C6.00381 9.77855 7.48653 11.0343 7.85104 12.8811C8.04047 13.8404 7.83152 14.7413 7.42167 15.6061C6.88552 16.7369 6.13756 17.7172 5.32128 18.6485C4.92577 19.0995 4.5073 19.5278 4.0676 19.9351C3.99469 20.0028 3.94934 20.0332 3.8598 19.948C2.60266 18.7465 1.46206 17.45 0.638898 15.8932C0.34729 15.3406 0.121122 14.7629 0.0338686 14.1362C0.0309984 14.1175 0.0114806 14.1006 0 14.0831C0 13.7773 0 13.4716 0 13.1658ZM2.68705 13.6548C2.69451 14.3679 3.26165 14.942 3.95853 14.9403C4.66 14.9391 5.24666 14.3393 5.2369 13.6326C5.22714 12.9289 4.64737 12.3448 3.95795 12.3448C3.25476 12.3448 2.67901 12.9377 2.68647 13.6542L2.68705 13.6548ZM14.0816 4.122C14.1046 1.95776 15.6005 0.27025 17.6004 0.0275101C19.7077 -0.228067 21.6651 1.3264 21.9636 3.47314C22.1003 4.45519 21.8385 5.34446 21.4039 6.19697C20.6652 7.64816 19.6267 8.86477 18.4884 10.0015C18.3708 10.1187 18.2456 10.2279 18.1302 10.3469C18.0659 10.4134 18.0223 10.4122 17.9546 10.3469C16.5453 8.99782 15.2641 7.54721 14.4616 5.72549C14.2205 5.17757 14.0707 4.60398 14.081 4.12084L14.0816 4.122ZM19.3122 4.05898C19.3277 3.34302 18.7611 2.749 18.0527 2.73792C17.3662 2.72741 16.7824 3.30392 16.7623 4.01289C16.7422 4.71485 17.3243 5.32112 18.0286 5.33279C18.7209 5.34446 19.2967 4.77262 19.3122 4.05898ZM6.75694 18.4635C6.58128 18.4629 6.51871 18.5055 6.52847 18.6905C6.5434 18.9805 6.54569 19.2734 6.52847 19.5634C6.51642 19.7589 6.57784 19.8038 6.76555 19.8033C9.72928 19.7968 12.6936 19.7986 15.6573 19.7992C15.8588 19.7992 16.0586 19.7788 16.2537 19.7362C17.9041 19.3755 18.9052 17.8853 18.6446 16.1832C18.4454 14.8808 17.2617 13.7768 15.9661 13.6892C15.2871 13.6431 14.6063 13.6793 13.9266 13.6694C13.2395 13.6595 12.5518 13.698 11.8653 13.649C10.9876 13.586 10.2482 12.6494 10.3659 11.7672C10.4945 10.8061 11.1816 10.1934 12.1373 10.1917C13.1827 10.1899 14.228 10.1888 15.2733 10.194C15.4151 10.1946 15.4782 10.1683 15.4719 10.0055C15.4593 9.68577 15.461 9.36484 15.4719 9.04508C15.4765 8.89804 15.4248 8.86127 15.2882 8.86186C14.2073 8.86653 13.1258 8.84319 12.0455 8.86944C9.72296 8.92604 8.31142 11.4217 9.4612 13.4395C10.0324 14.442 10.9175 14.966 12.0553 14.9893C13.2934 15.0144 14.5322 14.9881 15.771 15.0004C16.7296 15.0097 17.512 15.9585 17.3783 16.9225C17.248 17.8602 16.5723 18.4629 15.6286 18.4659C14.1826 18.4711 12.7361 18.467 11.2901 18.467C9.77922 18.467 8.26894 18.4699 6.75808 18.4629L6.75694 18.4635Z" fill="#FF638E"/>
</svg>
