<svg width="15" height="20" viewBox="0 0 15 20" fill="none" xmlns="http://www.w3.org/2000/svg">
<path d="M6.99231 0C7.33084 0 7.66936 0 8.00789 0C8.19916 0.0327763 8.39093 0.06213 8.58123 0.0997983C9.93826 0.3669 11.0722 1.02487 11.9606 2.08105C12.802 3.08097 13.2609 4.23988 13.322 5.55289C13.3494 6.1453 13.3362 6.73724 13.3372 7.32966C13.3372 7.46712 13.3788 7.50625 13.5138 7.50283C13.8518 7.49402 14.1909 7.49794 14.5294 7.50039C14.8386 7.50283 14.9985 7.66133 14.9985 7.97148C14.9995 11.4282 15.0019 14.8848 14.9971 18.3415C14.9956 19.2641 14.2696 19.9945 13.3489 19.996C9.44955 20.0013 5.55065 20.0013 1.65125 19.996C0.731075 19.9945 0.00461621 19.2641 0.00314862 18.3415C-0.00223255 14.8848 0.000702693 11.4282 0.00168109 7.97148C0.00168109 7.66182 0.162138 7.50283 0.470821 7.50039C0.783419 7.49794 1.09553 7.50185 1.40812 7.49892C1.67816 7.49647 1.65859 7.5449 1.65957 7.25138C1.66153 6.58118 1.62533 5.90804 1.69479 5.24127C1.81269 4.10388 2.22949 3.07754 2.95203 2.18574C3.73181 1.22397 4.71608 0.567959 5.90776 0.220629C6.26439 0.11643 6.63275 0.0836528 6.99231 0ZM7.50352 7.49941C8.5509 7.49941 9.59827 7.49647 10.6456 7.50283C10.7934 7.50381 10.832 7.4632 10.8281 7.3184C10.8178 6.95444 10.8252 6.58999 10.8247 6.22553C10.8242 5.87478 10.833 5.525 10.7626 5.17718C10.4196 3.48015 8.81066 2.33103 7.09798 2.52866C5.52325 2.71016 4.20291 4.11856 4.17992 5.70552C4.17209 6.23238 4.18334 6.75974 4.17258 7.28612C4.16915 7.45 4.20095 7.50576 4.38147 7.5043C5.42248 7.49402 6.463 7.49941 7.50401 7.49941H7.50352ZM7.48249 16.6572C7.48249 16.6572 7.48249 16.6538 7.48249 16.6523C7.76867 16.6523 8.05534 16.6631 8.34054 16.6489C8.60569 16.6357 8.76908 16.439 8.74119 16.1753C8.66488 15.4518 8.58416 14.7293 8.49513 14.0072C8.48045 13.8893 8.50149 13.8179 8.5915 13.7401C8.94812 13.4309 9.13549 13.0381 9.1531 12.5631C9.19223 11.5206 8.2745 10.6562 7.16891 10.8773C6.48648 11.0138 6.0374 11.457 5.88624 12.1419C5.74682 12.7734 5.92782 13.3243 6.42484 13.7562C6.47963 13.8037 6.52562 13.8463 6.51534 13.9343C6.43071 14.6569 6.3544 15.3799 6.26781 16.1019C6.22721 16.4424 6.38033 16.6445 6.72081 16.6557C6.97421 16.664 7.22811 16.6572 7.482 16.6572H7.48249Z" fill="#FF638E"/>
</svg>
