<svg width="21" height="19" viewBox="0 0 21 19" fill="none" xmlns="http://www.w3.org/2000/svg">
<path d="M21 17.5379C20.8872 17.8314 20.6694 18.0193 20.3982 18.1697C20.0109 18.384 19.6332 18.6157 19.2554 18.8463C18.9815 19.0136 18.706 19.0442 18.3972 18.9387C12.4832 16.9114 6.56823 14.8874 0.651101 12.8686C0.336411 12.7615 0.139332 12.5588 0 12.2769C0 12.1413 0 12.0051 0 11.8695C0.0429123 11.7866 0.079997 11.7001 0.130326 11.622C0.340649 11.2926 0.718383 11.1765 1.14115 11.3195C2.21766 11.6848 3.29206 12.0547 4.36752 12.4231C5.64217 12.8596 6.91788 13.2945 8.19095 13.7368C8.31863 13.7811 8.39968 13.7579 8.49769 13.674C9.51434 12.8068 10.5321 11.9418 11.5566 11.0841C11.7071 10.958 11.6923 10.9068 11.5408 10.7997C10.8065 10.2793 10.0796 9.74938 9.35276 9.21895C8.90085 8.88909 8.51411 8.50644 8.31492 7.96493C7.96526 7.01545 8.43995 5.8084 9.34905 5.34712C9.4264 5.30806 9.47991 5.30859 9.55249 5.35714C10.8626 6.22957 12.1744 7.09989 13.519 7.99238C13.2535 8.12644 13.0109 8.24888 12.7518 8.37977C13.3833 8.83789 14.0005 9.28651 14.6183 9.73407C14.934 9.96313 15.156 10.2539 15.2132 10.6471C15.2905 11.177 15.0977 11.6019 14.6908 11.9418C13.6292 12.829 12.568 13.7178 11.5074 14.6061C11.4454 14.6578 11.3861 14.7132 11.3013 14.7882C11.4772 14.8515 11.6313 14.9095 11.7871 14.9628C14.0085 15.7234 16.2309 16.4818 18.4507 17.2466C18.6011 17.2983 18.7177 17.2872 18.8496 17.2017C19.0954 17.0429 19.363 16.9157 19.6014 16.7468C20.1455 16.361 20.778 16.524 21 17.1706V17.5374V17.5379ZM14.3507 5.6374C11.6313 3.83237 8.91145 2.02681 6.19208 0.222313C6.11844 0.173228 6.04374 0.124673 5.96481 0.0850886C5.52933 -0.130776 5.00537 0.080338 4.84114 0.534762C4.70075 0.923212 4.84538 1.27472 5.26285 1.55181C8.16923 3.48245 11.0745 5.41362 13.9846 7.33845C14.1499 7.4477 14.2315 7.54376 14.1611 7.74379C14.1282 7.83615 14.1399 7.94541 14.1372 8.04727C14.1203 8.66108 14.3491 9.02314 14.9139 9.18359C16.1181 9.52665 17.3265 9.85757 18.5376 10.1742C19.1187 10.3262 19.6888 9.98055 19.8514 9.41898C20.0125 8.86375 19.7216 8.29638 19.1601 8.09371C18.9556 8.01982 18.741 7.97496 18.5323 7.91374C17.8833 7.72268 17.194 7.6356 16.6526 7.17062C16.5737 7.10253 16.5244 7.06242 16.5562 6.94314C16.6229 6.69508 16.6717 6.44122 16.7135 6.18735C16.7702 5.84165 16.9154 5.50598 16.8666 5.14761C16.7925 4.60399 16.5196 4.13743 16.2431 3.67878C15.895 3.10139 15.157 2.78682 14.4943 2.92141C13.8914 3.04438 13.3945 3.40645 12.8112 3.64606C12.8943 3.70623 12.9473 3.7474 13.0024 3.78434C13.5359 4.13901 14.0694 4.49368 14.6029 4.84783C14.6712 4.89322 14.7465 4.92964 14.7216 5.03572C14.6654 5.27217 14.6124 5.50915 14.5531 5.76723C14.4742 5.71657 14.4116 5.67751 14.3502 5.63687L14.3507 5.6374ZM20.8273 3.07394C20.8284 1.9809 19.9521 1.06308 18.7601 1.07891C17.6343 1.09369 16.7824 2.00253 16.7829 3.1035C16.784 4.22135 17.7048 5.08111 18.7691 5.09694C19.9145 5.11383 20.8257 4.23138 20.8268 3.07394H20.8273Z" fill="#FF638E"/>
</svg>
