<svg width="19" height="19" viewBox="0 0 19 19" fill="none" xmlns="http://www.w3.org/2000/svg">
<path d="M9.48083 8.82862C6.42139 8.82862 3.36195 8.82862 0.303075 8.82862C-0.0137121 8.82862 -0.0193893 8.82862 0.0129707 8.51202C0.174771 6.93124 0.685719 5.46961 1.59521 4.1551C2.86747 2.31477 4.57403 1.01536 6.75237 0.415713C10.4397 -0.599542 13.6768 0.248462 16.3826 2.91945C17.7707 4.2899 18.5717 5.98088 18.901 7.88721C18.947 8.15458 18.964 8.427 18.9975 8.69661C19.01 8.79562 18.9765 8.84037 18.8715 8.82918C18.8227 8.82415 18.7727 8.82862 18.7227 8.82862C15.6423 8.82862 12.5618 8.82862 9.48083 8.82862ZM4.39974 10.1689C3.00485 10.1689 1.6094 10.1728 0.214511 10.1644C0.0317055 10.1633 -0.0137121 10.2125 0.0038872 10.3848C0.0504402 10.8356 0.115728 11.2826 0.219621 11.7245C1.13251 15.6121 4.45765 18.5538 8.5986 18.9521C10.249 19.1109 11.8539 18.8799 13.355 18.1818C16.7045 16.624 18.5746 14.0067 18.9952 10.3809C19.0163 10.198 18.9566 10.165 18.7824 10.165C15.6877 10.17 12.5931 10.1689 9.49843 10.1689C7.79868 10.1689 6.09949 10.1689 4.39974 10.1689Z" fill="#FF638E"/>
</svg>
