<svg width="18" height="23" viewBox="0 0 18 23" fill="none" xmlns="http://www.w3.org/2000/svg">
<path d="M3.66425 13.8185C3.33867 13.8185 3.04893 13.8197 2.75963 13.8185C2.1767 13.8152 1.93618 13.4171 2.23326 12.9368C3.35681 11.121 4.48424 9.3073 5.60821 7.49191C5.65744 7.41221 5.73084 7.34118 5.73948 7.21564C5.57021 7.21564 5.40656 7.21771 5.24291 7.21564C4.72216 7.2078 4.47905 6.81011 4.74332 6.37815C5.30681 5.45725 5.87981 4.54171 6.44893 3.62411C7.11563 2.54875 7.78146 1.4734 8.44859 0.398457C8.77806 -0.132613 9.21892 -0.133026 9.54839 0.398457C10.7674 2.36375 11.985 4.32986 13.2057 6.29432C13.3392 6.50865 13.4419 6.71926 13.2865 6.9625C13.1401 7.19128 12.9104 7.22886 12.6565 7.21771C12.5261 7.21193 12.3952 7.21688 12.2579 7.21688C12.2687 7.33829 12.3404 7.40973 12.3896 7.48902C13.5041 9.29119 14.6194 11.0934 15.7391 12.8926C15.8743 13.1099 15.9675 13.3246 15.822 13.5625C15.6821 13.7912 15.4481 13.8288 15.1929 13.8222C14.9187 13.8148 14.6441 13.8206 14.3656 13.8206C14.3586 13.9374 14.4372 14.0064 14.4856 14.0849C15.6001 15.8874 16.7176 17.688 17.8325 19.4901C17.8912 19.5851 17.9564 19.6838 17.9823 19.7887C18.073 20.1562 17.8074 20.4259 17.3614 20.4263C15.3518 20.4276 13.3422 20.4325 11.3326 20.4201C11.0726 20.4185 11.0178 20.4874 11.0247 20.7224C11.0424 21.3522 11.0316 21.9824 11.0303 22.6121C11.0295 22.9103 10.944 22.997 10.6292 22.9978C9.54537 23.0007 8.46111 23.0007 7.37686 22.9978C7.05733 22.997 6.97572 22.9165 6.97486 22.6175C6.97313 21.9716 6.9632 21.3253 6.98047 20.6799C6.98652 20.4594 6.91138 20.4218 6.70023 20.4226C4.74072 20.43 2.78122 20.4271 0.821275 20.4271C0.754777 20.4271 0.687848 20.428 0.621351 20.4271C0.0846236 20.4201 -0.159344 20.0245 0.110963 19.5818C0.62351 18.7431 1.14512 17.9097 1.66285 17.0739C2.28637 16.0667 2.90989 15.0595 3.53255 14.0522C3.57357 13.9862 3.60941 13.9172 3.66425 13.8206V13.8185ZM12.834 18.1257C13.2869 18.1224 13.6803 17.7433 13.6803 17.3105C13.6803 16.879 13.2804 16.5007 12.8279 16.5032C12.3715 16.5061 11.9837 16.8798 11.9837 17.3167C11.9837 17.7491 12.3832 18.129 12.834 18.1253V18.1257ZM5.17339 16.5032C4.71741 16.5023 4.32706 16.8748 4.3262 17.3118C4.32533 17.7478 4.71611 18.1253 5.16907 18.1257C5.62117 18.1261 6.01799 17.7483 6.01928 17.3155C6.02058 16.8806 5.62851 16.504 5.17339 16.5032ZM9.83769 4.67097C9.8364 4.22166 9.46375 3.86445 8.99871 3.8661C8.53193 3.86776 8.16619 4.22414 8.16619 4.67716C8.16619 5.1277 8.53884 5.48781 9.00432 5.48698C9.46246 5.48616 9.83899 5.11738 9.83769 4.67138V4.67097ZM6.86648 9.58811C6.86259 10.0395 7.21926 10.3926 7.68949 10.4021C8.15583 10.4116 8.53366 10.0626 8.541 9.61578C8.54834 9.1512 8.18563 8.79357 7.7059 8.79233C7.23567 8.79109 6.87036 9.13757 6.86648 9.5877V9.58811ZM11.1482 10.3153C10.675 10.3158 10.3092 10.6651 10.3101 11.1157C10.3109 11.5666 10.6771 11.9147 11.1495 11.9139C11.6215 11.9131 11.9876 11.5633 11.9868 11.1132C11.9863 10.6618 11.6215 10.3145 11.1478 10.3149L11.1482 10.3153ZM9.83769 15.809C9.83554 15.358 9.46894 15.0124 8.99482 15.014C8.52329 15.0161 8.16404 15.3655 8.16533 15.8205C8.16663 16.2736 8.53236 16.6192 9.00648 16.6159C9.47714 16.6126 9.83942 16.2608 9.83726 15.809H9.83769Z" fill="#FF638E"/>
</svg>
